<svg fill="none" version="1.1" viewBox="0 0 882 189" xmlns="http://www.w3.org/2000/svg">
<g clip-path="url(#clip0)" clip-rule="evenodd" fill-rule="evenodd">
<g fill="#fefefe">
<path d="m178.68 173.58h-3.425v-3.997c-1.142 1.713-2.855 2.855-3.997 3.426-1.712 0.571-3.425 1.142-5.137 1.142-3.426 0-5.709-1.142-7.422-2.855-2.854-2.855-3.996-6.852-3.996-13.133s1.142-10.849 3.996-13.133c1.713-1.713 4.567-2.855 7.422-2.855 1.712 0 3.425 0.571 5.137 1.142 1.713 0.571 2.855 1.713 3.997 3.426v-18.843h3.425zm-3.996-10.849c0-1.142 0.571-2.855 0.571-5.139 0-1.713 0-3.426-0.571-5.139 0-1.142-0.571-2.855-1.142-3.997s-1.713-2.284-2.854-2.855c-1.142-0.571-2.855-1.142-4.567-1.142-1.713 0-3.426 0.571-4.567 1.142-1.142 0.571-2.284 1.713-2.855 2.855s-1.142 2.855-1.142 3.997-0.57 2.855-0.57 5.139c0 1.713 0 3.426 0.57 5.139 0 1.142 0.571 2.855 1.142 3.997s1.713 2.284 2.855 2.855c1.141 0.571 2.854 1.142 4.567 1.142 1.712 0 3.425-0.571 4.567-1.142 1.141-0.571 2.283-1.713 2.854-2.855s1.142-2.284 1.142-3.997z"/>
<path d="m210.65 173.58h-3.425v-31.405h3.425zm0-42.253h-3.996v-3.997h3.996z"/>
<path d="m261.46 175.3c0 3.997-1.142 7.423-3.425 9.707-2.284 2.284-5.138 3.997-9.134 3.997-2.284 0-3.996-0.571-5.709-1.142-1.712-0.571-2.854-1.713-4.567-3.426l2.284-2.284c1.141 1.142 2.854 2.284 3.425 2.855 1.142 0.571 2.283 0.571 4.567 0.571 3.425 0 5.709-1.142 6.85-2.855 1.713-1.713 2.284-4.568 2.284-7.994v-5.71c-1.142 1.713-2.854 2.855-3.996 3.426-1.713 0.571-3.425 1.142-5.138 1.142-3.425 0-5.709-1.142-7.421-2.855-2.855-2.855-3.997-6.852-3.997-13.133s1.142-10.849 3.997-13.133c1.712-1.713 4.567-2.855 7.421-2.855 1.713 0 3.425 0.571 5.138 1.142 1.712 0.571 2.854 1.713 3.996 3.426v-3.997h3.425zm-3.425-12.562c0-1.142 0.571-2.855 0.571-5.139 0-1.713 0-3.426-0.571-5.139 0-1.142-0.571-2.855-1.142-3.997s-1.712-2.284-2.854-2.855-2.855-1.142-4.567-1.142c-1.713 0-3.425 0.571-4.567 1.142s-2.284 1.713-2.855 2.855c-0.57 1.142-1.141 2.855-1.141 3.997s-0.571 2.855-0.571 5.139c0 1.713 0 3.426 0.571 5.139 0 1.142 0.571 2.855 1.141 3.997 0.571 1.142 1.713 2.284 2.855 2.855s2.854 1.142 4.567 1.142c1.712 0 3.425-0.571 4.567-1.142s2.283-1.713 2.854-2.855 1.142-2.284 1.142-3.997z"/>
<path d="m293.43 173.58h-3.425v-31.405h3.425zm0.571-42.253h-3.996v-3.997h3.996z"/>
<path d="m333.39 173.58h-2.855c-2.283 0-3.996-0.571-5.709-2.284-1.141-1.713-1.712-3.426-1.712-5.71v-20.556h-4.567v-2.284h4.567v-10.278h3.425v10.278h6.851v2.284h-6.851v20.556c0 3.426 1.713 5.139 4.567 5.139h2.284z"/>
<path d="m380.77 173.58h-3.425v-2.855c-1.142 1.142-2.854 2.284-3.996 2.855s-3.425 0.571-5.709 0.571c-4.567 0-7.421-1.142-9.134-2.855s-2.283-3.426-2.283-6.281 1.141-5.139 2.854-6.852 4.567-2.284 7.992-2.284h10.276v-3.426c0-2.284-0.571-4.568-2.284-5.71-1.141-1.142-3.425-1.713-6.85-1.713-2.284 0-3.996 0.571-5.138 1.142s-2.283 1.713-3.425 2.855l-2.284-2.284c1.142-1.713 2.855-2.855 4.567-3.997 1.713-0.571 3.996-1.142 6.28-1.142 7.992 0 11.988 3.426 11.988 10.278v21.698zm-3.425-10.849v-3.997h-9.705c-5.138 0-7.992 2.284-7.992 6.281 0 2.284 0.571 3.426 1.712 4.568 1.142 1.142 3.426 1.713 6.28 1.713 3.425 0 6.28-0.571 7.992-2.284 1.142-1.713 1.713-3.426 1.713-6.281z"/>
<path d="m419.02 173.58h-2.854c-2.284 0-4.567-0.571-5.709-2.284s-1.713-3.426-1.713-5.71v-38.256h3.425v38.256c0 1.713 0.571 3.426 1.142 3.997s1.713 1.142 3.996 1.142h2.284v2.855z"/>
<path d="m514.93 173.58h-3.425v-2.855c-1.142 1.142-2.854 2.284-3.996 2.855s-3.425 0.571-5.709 0.571c-4.567 0-7.421-1.142-9.134-2.855-1.712-1.713-2.283-3.426-2.283-6.281s1.142-5.139 2.854-6.852c1.713-1.713 4.567-2.284 7.992-2.284h10.276v-3.426c0-2.284-0.571-4.568-2.283-5.71-1.142-1.142-3.426-1.713-6.851-1.713-2.283 0-3.996 0.571-5.138 1.142-1.141 0.571-2.283 1.713-3.425 2.855l-2.283-2.284c1.141-1.713 2.854-2.855 4.567-3.997 1.712-0.571 3.996-1.142 6.279-1.142 7.992 0 11.989 3.426 11.989 10.278v21.698zm-3.425-10.849v-3.997h-9.705c-5.138 0-7.992 2.284-7.992 6.281 0 2.284 0.571 3.426 1.713 4.568 1.141 1.142 3.425 1.713 6.279 1.713 3.426 0 6.28-0.571 7.993-2.284 1.141-1.713 1.712-3.426 1.712-6.281z"/>
<path d="m565.74 175.3c0 3.997-1.141 7.423-3.425 9.707-2.283 2.284-5.138 3.997-9.134 3.997-2.283 0-3.996-0.571-5.709-1.142-1.712-0.571-2.854-1.713-4.567-3.426l2.284-2.284c1.142 1.142 2.854 2.284 3.425 2.855 1.142 0.571 2.284 0.571 4.567 0.571 3.425 0 5.709-1.142 6.851-2.855 1.712-1.713 2.283-4.568 2.283-7.994v-5.71c-1.142 1.713-2.854 2.855-3.996 3.426-1.713 0.571-3.425 1.142-5.138 1.142-3.425 0-5.709-1.142-7.421-2.855-2.855-2.855-3.996-6.852-3.996-13.133s1.141-10.849 3.996-13.133c1.712-1.713 4.567-2.855 7.421-2.855 1.713 0 3.425 0.571 5.138 1.142s2.854 1.713 3.996 3.426v-3.997h3.425zm-3.425-12.562c0-1.142 0.571-2.855 0.571-5.139 0-1.713 0-3.426-0.571-5.139 0-1.142-0.571-2.855-1.142-3.997s-1.712-2.284-2.854-2.855-2.854-1.142-4.567-1.142-3.425 0.571-4.567 1.142-2.283 1.713-2.854 2.855-1.142 2.855-1.142 3.997-0.571 2.855-0.571 5.139c0 1.713 0 3.426 0.571 5.139 0 1.142 0.571 2.855 1.142 3.997s1.712 2.284 2.854 2.855 2.854 1.142 4.567 1.142 3.425-0.571 4.567-1.142 2.283-1.713 2.854-2.855 0.571-2.284 1.142-3.997z"/>
<path d="m617.68 158.74h-21.693c0 3.997 1.141 6.852 2.854 9.136s3.996 3.426 7.421 3.426c1.713 0 3.426-0.571 4.567-1.142 1.142-0.571 2.855-1.713 3.996-2.855l2.284 1.713c-1.713 1.713-3.425 2.855-5.138 3.426s-3.996 1.142-6.28 1.142c-4.567 0-7.421-1.142-9.704-3.997-2.284-2.855-3.426-6.852-3.426-11.991s1.142-9.136 3.426-11.991c2.283-2.855 5.137-3.997 9.134-3.997 3.996 0 6.85 1.142 9.134 3.997 2.283 2.855 3.425 6.281 3.425 11.42zm-3.425-2.855c0-2.855-0.571-4.568-1.142-5.71-0.571-1.713-1.713-2.855-3.425-3.997-1.713-1.142-2.855-1.142-5.138-1.142-1.713 0-3.426 0.571-5.138 1.142-1.713 1.142-2.284 2.284-3.425 3.997-0.571 1.142-1.142 3.426-1.142 5.71z"/>
<path d="m668.5 173.58h-3.425v-19.414c0-2.855-0.571-5.139-2.283-6.852-1.713-1.713-3.426-2.284-6.28-2.284s-5.138 0.571-6.28 2.284c-1.712 1.713-2.283 3.997-2.283 6.852v19.414h-3.425v-31.405h3.425v3.426c2.283-2.855 5.138-3.997 9.134-3.997 3.425 0 6.279 1.142 8.563 2.855 2.283 2.284 3.425 5.139 3.425 8.565v20.556z"/>
<path d="m719.3 169.02c-1.713 1.713-3.425 2.855-4.567 3.997-1.713 0.571-3.425 1.142-5.709 1.142-4.567 0-7.421-1.713-10.276-4.568-2.283-2.855-3.425-6.852-3.425-11.991s1.142-9.136 3.425-11.991c2.284-2.855 5.709-4.568 10.276-4.568 2.284 0 3.996 0.571 5.709 1.142s2.854 1.713 4.567 3.997l-2.284 2.284c-1.141-1.713-2.854-2.284-3.996-2.855-1.141-0.571-2.854-1.142-4.567-1.142-3.425 0-6.279 1.142-8.563 3.997-1.712 2.284-2.283 5.139-2.283 9.136s0.571 6.852 2.283 9.136c1.713 2.855 4.567 3.997 8.563 3.997 1.713 0 2.855-0.571 3.996-1.142 1.142-0.571 2.284-1.713 3.997-2.855z"/>
<path d="m765.54 142.18-14.272 39.97c-0.571 1.713-1.142 2.855-2.284 3.426-1.142 1.141-3.425 2.283-5.709 2.283h-1.712v-2.854h1.142c1.712 0 2.854-0.571 3.996-1.142 0.571-0.571 1.141-1.713 1.712-3.426l2.284-6.852-11.418-31.405h3.426l9.704 27.408 9.134-27.408z"/>
<path d="m52.52 82.223-5.7088-16.559h-32.54l-5.7087 16.559h-8.5631l27.402-74.23h6.8505l27.402 74.23zm-21.693-62.81-13.701 39.399h27.973z"/>
<path d="m141.01 82.223-17.126-33.118h-17.697v33.118h-7.9926v-74.23h28.544c3.425 0 6.28 0.571 9.134 1.142 2.854 1.142 5.138 2.284 6.851 3.997 1.712 1.713 3.425 3.997 4.567 6.281 0.57 3.426 1.141 6.281 1.141 9.1359 0 5.139-1.712 9.707-4.567 13.133-2.854 3.426-6.85 5.7099-11.417 6.8519l17.697 33.689zm-0.571-53.674c0-4.5679-1.142-7.9939-3.996-10.278s-6.28-3.426-10.847-3.426h-19.98v27.408h19.98c4.567 0 7.993-1.142 10.847-3.426s3.996-5.139 3.996-10.278z"/>
<path d="m237.48 82.223-22.264-39.399-15.984 18.843v20.556h-7.421v-74.23h7.421v42.825l34.823-42.825h9.705l-23.406 28.55 26.831 45.68z"/>
<path d="m419.02 82.223-39.39-59.384v59.384h-7.992v-74.23h7.992l39.39 59.384v-59.384h7.422v74.23z"/>
<path d="m517.78 61.668c0 3.426-0.571 6.281-1.713 8.565-1.142 2.8549-2.854 4.5679-5.138 6.8519-2.283 1.713-5.138 3.426-7.992 3.997-3.425 1.142-6.85 1.713-10.847 1.713-2.854 0-5.137 0-7.421-0.571-2.283-0.571-4.567-1.142-6.28-1.713-2.283-0.571-3.996-1.713-5.708-2.855-1.713-1.142-3.426-2.855-5.138-4.568l5.138-5.1389c2.854 2.855 6.279 5.1389 9.134 6.2809 2.854 1.142 6.85 1.713 10.846 1.713 5.709 0 9.705-1.142 13.13-3.426 2.855-2.2839 4.567-5.7099 4.567-10.278 0-3.997-1.141-6.852-3.425-9.1359-0.571-0.571-1.142-1.142-1.712-1.142-0.571-0.571-1.142-0.571-1.713-1.142-0.571 0-1.713-0.571-2.284-0.571-1.141 0-2.283-0.571-3.425-0.571l-8.563-1.142c-5.709-1.142-10.276-2.855-13.701-5.71-3.996-3.426-5.709-7.994-5.709-13.704 0-2.855 0.571-5.71 1.713-8.565s2.854-4.5679 4.567-6.8519c1.142-2.284 3.425-3.997 6.85-4.568 2.855-1.142 6.28-1.713 9.705-1.713 4.567 0 8.563 0.57099 11.989 1.713 3.425 1.142 6.85 3.426 9.705 6.281l-5.138 5.1389c-1.713-2.284-4.567-3.426-6.851-4.5679-2.854-1.142-6.279-1.713-9.705-1.713-5.138 0-9.134 1.142-11.417 3.9969-2.855 2.284-3.996 5.71-3.996 10.278 0 3.997 1.141 6.8519 3.425 8.5649 1.142 1.142 2.854 1.713 3.996 2.284 1.713 0.571 3.425 1.142 5.138 1.713l8.563 1.142c3.425 0.571 6.28 1.142 7.992 1.713 1.713 0.571 3.426 1.713 5.138 3.426 2.284 1.713 3.425 3.997 4.567 6.2809 1.142 2.284 1.713 5.139 1.713 7.994z"/>
<path d="m581.15 15.417v66.807h-7.993v-66.807h-21.122v-7.423h50.808v7.423z"/>
<path d="m781.53 82.223-39.39-59.384v59.384h-7.421v-74.23h7.421l39.39 59.384v-59.384h7.993v74.23z"/>
<path d="m835.76 82.223v-74.23h46.241v7.423h-38.249v25.695h32.54v7.4229h-32.54v26.837h38.249v6.852z"/>
</g>
<path d="m281.44 7.9936h46.241v6.852h-46.241zm0 33.118h46.241v6.8519h-46.241zm0 34.26h46.241v6.852h-46.241z" fill="#2296b0"/>
<path d="m674.78 5.139 21.693 77.085h-59.371l-12.559-54.816 49.095-27.408zm11.417 69.091-17.697-62.239-34.823 19.414 9.705 42.825z" fill="#2296b0"/>
</g>
<defs>
<clipPath id="clip0">
<rect width="882" height="189" fill="#fff"/>
</clipPath>
</defs>
</svg>
