<svg fill="none" version="1.1" viewBox="0 0 1156 527" xmlns="http://www.w3.org/2000/svg">
<path d="m864.5 345c0 28.995-23.505 52.5-52.5 52.5s-52.5-23.505-52.5-52.5 23.505-52.5 52.5-52.5 52.5 23.505 52.5 52.5z" stroke="#ebf8f1" stroke-width="5"/>
<mask id="mask0" x="814" y="306" width="39" height="35" mask-type="alpha" maskUnits="userSpaceOnUse">
<path d="m823.36 306.36-9.091 19.091h13.636s6.364-15.455 7.273-14.546 5.455 3.637 5.455 5c0 1.364-10 13.182-10 13.182l9.09 10.909 12.728-4.545-8.182-25.455z" clip-rule="evenodd" fill="#fff" fill-rule="evenodd"/>
</mask>
<g mask="url(#mask0)">
<path d="m776.09 345.45c0 20.084 16.28 36.364 36.363 36.364 20.084 0 36.364-16.28 36.364-36.364 0-20.083-16.28-36.363-36.364-36.363-20.083 0-36.363 16.28-36.363 36.363zm65.454 0c0 16.067-13.024 29.091-29.091 29.091-16.066 0-29.09-13.024-29.09-29.091 0-16.066 13.024-29.09 29.09-29.09 16.067 0 29.091 13.024 29.091 29.09z" clip-rule="evenodd" fill="#ebf8f1" fill-rule="evenodd"/>
</g>
<path d="m965.5 230c0 23.472-19.028 42.5-42.5 42.5s-42.5-19.028-42.5-42.5 19.028-42.5 42.5-42.5 42.5 19.028 42.5 42.5z" stroke="#ebf8f1" stroke-width="5"/>
<mask id="mask1" x="924" y="198" width="33" height="28" mask-type="alpha" maskUnits="userSpaceOnUse">
<path d="m932.3 198.39-7.438 15.62h11.157s5.207-12.645 5.951-11.901c0.744 0.743 4.463 2.975 4.463 4.091 0 1.115-8.182 10.785-8.182 10.785l7.438 8.925 10.413-3.719-6.694-20.826z" clip-rule="evenodd" fill="#fff" fill-rule="evenodd"/>
</mask>
<g mask="url(#mask1)">
<path d="m893.62 230.37c0 16.431 13.32 29.752 29.752 29.752 16.431 0 29.752-13.321 29.752-29.752 0-16.432-13.321-29.752-29.752-29.752-16.432 0-29.752 13.32-29.752 29.752zm53.553 0c0 13.145-10.656 23.801-23.801 23.801-13.146 0-23.802-10.656-23.802-23.801 0-13.146 10.656-23.802 23.802-23.802 13.145 0 23.801 10.656 23.801 23.802z" clip-rule="evenodd" fill="#ebf8f1" fill-rule="evenodd"/>
</g>
<path d="m1069.5 31c0 15.74-12.76 28.5-28.5 28.5s-28.5-12.76-28.5-28.5 12.76-28.5 28.5-28.5 28.5 12.76 28.5 28.5z" stroke="#ebf8f1" stroke-width="5"/>
<mask id="mask2" x="1042" y="9" width="22" height="20" mask-type="alpha" maskUnits="userSpaceOnUse">
<path d="m1047.4 9.2231-5.12 10.76h7.69s3.58-8.7108 4.1-8.1984c0.51 0.5124 3.07 2.0496 3.07 2.8182s-5.64 7.4298-5.64 7.4298l5.13 6.1487 7.17-2.562-4.61-14.347z" clip-rule="evenodd" fill="#fff" fill-rule="evenodd"/>
</mask>
<g mask="url(#mask2)">
<path d="m1020.8 31.256c0 11.32 9.18 20.496 20.5 20.496s20.49-9.1763 20.49-20.496c0-11.32-9.17-20.496-20.49-20.496s-20.5 9.1763-20.5 20.496zm36.89 0c0 9.0557-7.34 16.397-16.39 16.397-9.06 0-16.4-7.341-16.4-16.397 0-9.0556 7.34-16.397 16.4-16.397 9.05 0 16.39 7.3411 16.39 16.397z" clip-rule="evenodd" fill="#ebf8f1" fill-rule="evenodd"/>
</g>
<path d="m1115.4 158.62c8.22 28.668-8.36 58.572-37.03 66.792-28.66 8.221-58.57-8.356-66.79-37.024s8.36-58.572 37.03-66.792c28.66-8.221 58.57 8.355 66.79 37.024z" stroke="#ebf8f1" stroke-width="5"/>
<mask id="mask3" x="1060" y="129" width="41" height="32" mask-type="alpha" maskUnits="userSpaceOnUse">
<path d="m1063.8 132.13-3.57 21.426 13.47-3.861s1.9-17.063 3.06-16.423c1.15 0.64 6.41 2.046 6.8 3.393s-6.14 15.848-6.14 15.848l12.06 8.199 11.29-8.093-15.29-22.819z" clip-rule="evenodd" fill="#fff" fill-rule="evenodd"/>
</mask>
<g mask="url(#mask3)">
<path d="m1028.2 184.12c5.69 19.831 26.37 31.298 46.2 25.612 19.84-5.687 31.3-26.374 25.62-46.205-5.69-19.832-26.38-31.299-46.21-25.612s-31.3 26.373-25.61 46.205zm64.63-18.534c4.55 15.865-4.62 32.415-20.49 36.964-15.86 4.549-32.41-4.624-36.96-20.49-4.55-15.865 4.62-32.414 20.49-36.963 15.87-4.55 32.41 4.624 36.96 20.489z" clip-rule="evenodd" fill="#ebf8f1" fill-rule="evenodd"/>
</g>
<path d="m728.5 457c0 37.279-30.221 67.5-67.5 67.5s-67.5-30.221-67.5-67.5 30.221-67.5 67.5-67.5 67.5 30.221 67.5 67.5z" stroke="#ebf8f1" stroke-width="5"/>
<mask id="mask4" x="663" y="407" width="50" height="44" mask-type="alpha" maskUnits="userSpaceOnUse">
<path d="m675.46 407.83-11.57 24.297h17.355s8.099-19.669 9.256-18.512 6.942 4.628 6.942 6.363c0 1.736-12.727 16.777-12.727 16.777l11.57 13.885 16.199-5.786-10.414-32.396z" clip-rule="evenodd" fill="#fff" fill-rule="evenodd"/>
</mask>
<g mask="url(#mask4)">
<path d="m615.3 457.58c0 25.561 20.721 46.281 46.281 46.281 25.561 0 46.281-20.72 46.281-46.281 0-25.56-20.72-46.281-46.281-46.281-25.56 0-46.281 20.721-46.281 46.281zm83.306 0c0 20.449-16.576 37.025-37.025 37.025-20.448 0-37.024-16.576-37.024-37.025 0-20.448 16.576-37.024 37.024-37.024 20.449 0 37.025 16.576 37.025 37.024z" clip-rule="evenodd" fill="#ebf8f1" fill-rule="evenodd"/>
</g>
<path d="m782.5 407c0 17.397-14.103 31.5-31.5 31.5s-31.5-14.103-31.5-31.5 14.103-31.5 31.5-31.5 31.5 14.103 31.5 31.5z" stroke="#ebf8f1" stroke-width="5"/>
<mask id="mask5" x="752" y="383" width="25" height="21" mask-type="alpha" maskUnits="userSpaceOnUse">
<path d="m758.02 383.12-5.62 11.801h8.43s3.933-9.553 4.495-8.991 3.372 2.248 3.372 3.091-6.182 8.148-6.182 8.148l5.62 6.744 7.868-2.81-5.058-15.735z" clip-rule="evenodd" fill="#fff" fill-rule="evenodd"/>
</mask>
<g mask="url(#mask5)">
<path d="m728.8 407.28c0 12.415 10.064 22.479 22.479 22.479s22.479-10.064 22.479-22.479-10.064-22.479-22.479-22.479-22.479 10.064-22.479 22.479zm40.463 0c0 9.932-8.052 17.984-17.984 17.984s-17.983-8.052-17.983-17.984 8.051-17.983 17.983-17.983 17.984 8.051 17.984 17.983z" clip-rule="evenodd" fill="#ebf8f1" fill-rule="evenodd"/>
</g>
<path d="m43.5 354c0 11.322-9.1782 20.5-20.5 20.5s-20.5-9.178-20.5-20.5 9.1782-20.5 20.5-20.5 20.5 9.178 20.5 20.5z" stroke="#ebf8f1" stroke-width="5"/>
<mask id="mask6" x="23" y="337" width="17" height="15" mask-type="alpha" maskUnits="userSpaceOnUse">
<path d="m27.752 337.84-3.8016 7.983h5.7025s2.6611-6.463 3.0413-6.082c0.3802 0.38 2.281 1.52 2.281 2.091 0 0.57-4.1818 5.512-4.1818 5.512l3.8016 4.562 5.3223-1.901-3.4214-10.645z" clip-rule="evenodd" fill="#fff" fill-rule="evenodd"/>
</mask>
<g mask="url(#mask6)">
<path d="m7.9834 354.19c0 8.398 6.8082 15.207 15.207 15.207s15.207-6.809 15.207-15.207-6.8082-15.207-15.207-15.207-15.207 6.809-15.207 15.207zm27.372 0c0 6.719-5.4466 12.165-12.165 12.165s-12.165-5.446-12.165-12.165 5.4466-12.165 12.165-12.165 12.165 5.446 12.165 12.165z" clip-rule="evenodd" fill="#ebf8f1" fill-rule="evenodd"/>
</g>
<path d="m588.5 444c0 17.397-14.103 31.5-31.5 31.5s-31.5-14.103-31.5-31.5 14.103-31.5 31.5-31.5 31.5 14.103 31.5 31.5z" stroke="#ebf8f1" stroke-width="5"/>
<mask id="mask7" x="558" y="420" width="25" height="21" mask-type="alpha" maskUnits="userSpaceOnUse">
<path d="m564.02 420.12-5.62 11.801h8.43s3.933-9.553 4.495-8.991 3.372 2.248 3.372 3.091-6.182 8.148-6.182 8.148l5.62 6.744 7.868-2.81-5.058-15.735z" clip-rule="evenodd" fill="#fff" fill-rule="evenodd"/>
</mask>
<g mask="url(#mask7)">
<path d="m534.8 444.28c0 12.415 10.064 22.479 22.479 22.479s22.479-10.064 22.479-22.479-10.064-22.479-22.479-22.479-22.479 10.064-22.479 22.479zm40.463 0c0 9.932-8.052 17.984-17.984 17.984s-17.983-8.052-17.983-17.984 8.051-17.983 17.983-17.983 17.984 8.051 17.984 17.983z" clip-rule="evenodd" fill="#ebf8f1" fill-rule="evenodd"/>
</g>
<path d="m762.5 360.5c0 8.837-7.163 16-16 16s-16-7.163-16-16 7.163-16 16-16 16 7.163 16 16z" stroke="#ebf8f1" stroke-width="5"/>
<mask id="mask8" x="747" y="347" width="14" height="12" mask-type="alpha" maskUnits="userSpaceOnUse">
<path d="m750.32 347.5-3.058 6.421h4.586s2.141-5.198 2.447-4.892c0.305 0.306 1.834 1.223 1.834 1.682 0 0.458-3.363 4.434-3.363 4.434l3.058 3.669 4.281-1.529-2.752-8.562z" clip-rule="evenodd" fill="#fff" fill-rule="evenodd"/>
</mask>
<g mask="url(#mask8)">
<path d="m734.42 360.65c0 6.755 5.477 12.231 12.232 12.231s12.231-5.476 12.231-12.231-5.476-12.232-12.231-12.232-12.232 5.477-12.232 12.232zm22.017 0c0 5.404-4.381 9.785-9.785 9.785s-9.785-4.381-9.785-9.785 4.381-9.785 9.785-9.785 9.785 4.381 9.785 9.785z" clip-rule="evenodd" fill="#ebf8f1" fill-rule="evenodd"/>
</g>
<path d="m912.5 475.5c0 8.837-7.163 16-16 16s-16-7.163-16-16 7.163-16 16-16 16 7.163 16 16z" stroke="#ebf8f1" stroke-width="5"/>
<mask id="mask9" x="897" y="462" width="14" height="12" mask-type="alpha" maskUnits="userSpaceOnUse">
<path d="m900.32 462.5-3.058 6.421h4.586s2.141-5.198 2.447-4.892c0.305 0.306 1.834 1.223 1.834 1.682 0 0.458-3.363 4.434-3.363 4.434l3.058 3.669 4.281-1.529-2.752-8.562z" clip-rule="evenodd" fill="#fff" fill-rule="evenodd"/>
</mask>
<g mask="url(#mask9)">
<path d="m884.42 475.65c0 6.755 5.477 12.231 12.232 12.231s12.231-5.476 12.231-12.231-5.476-12.232-12.231-12.232-12.232 5.477-12.232 12.232zm22.017 0c0 5.404-4.381 9.785-9.785 9.785s-9.785-4.381-9.785-9.785 4.381-9.785 9.785-9.785 9.785 4.381 9.785 9.785z" clip-rule="evenodd" fill="#ebf8f1" fill-rule="evenodd"/>
</g>
<path d="m720.5 383.5c0 8.837-7.163 16-16 16s-16-7.163-16-16 7.163-16 16-16 16 7.163 16 16z" stroke="#ebf8f1" stroke-width="5"/>
<mask id="mask10" x="705" y="370" width="14" height="12" mask-type="alpha" maskUnits="userSpaceOnUse">
<path d="m708.32 370.5-3.058 6.421h4.586s2.141-5.198 2.447-4.892c0.305 0.306 1.834 1.223 1.834 1.682 0 0.458-3.363 4.434-3.363 4.434l3.058 3.669 4.281-1.529-2.752-8.562z" clip-rule="evenodd" fill="#fff" fill-rule="evenodd"/>
</mask>
<g mask="url(#mask10)">
<path d="m692.42 383.65c0 6.755 5.477 12.231 12.232 12.231s12.231-5.476 12.231-12.231-5.476-12.232-12.231-12.232-12.232 5.477-12.232 12.232zm22.017 0c0 5.404-4.381 9.785-9.785 9.785s-9.785-4.381-9.785-9.785 4.381-9.785 9.785-9.785 9.785 4.381 9.785 9.785z" clip-rule="evenodd" fill="#ebf8f1" fill-rule="evenodd"/>
</g>
<path d="m522.5 441.5c0 8.837-7.163 16-16 16s-16-7.163-16-16 7.163-16 16-16 16 7.163 16 16z" stroke="#ebf8f1" stroke-width="5"/>
<mask id="mask11" x="507" y="428" width="14" height="12" mask-type="alpha" maskUnits="userSpaceOnUse">
<path d="m510.32 428.5-3.058 6.421h4.586s2.141-5.198 2.447-4.892c0.305 0.306 1.834 1.223 1.834 1.682 0 0.458-3.363 4.434-3.363 4.434l3.058 3.669 4.281-1.529-2.752-8.562z" clip-rule="evenodd" fill="#fff" fill-rule="evenodd"/>
</mask>
<g mask="url(#mask11)">
<path d="m494.42 441.65c0 6.755 5.477 12.231 12.232 12.231s12.231-5.476 12.231-12.231-5.476-12.232-12.231-12.232-12.232 5.477-12.232 12.232zm22.017 0c0 5.404-4.381 9.785-9.785 9.785s-9.785-4.381-9.785-9.785 4.381-9.785 9.785-9.785 9.785 4.381 9.785 9.785z" clip-rule="evenodd" fill="#ebf8f1" fill-rule="evenodd"/>
</g>
<path d="m855.5 455c0 24.024-19.476 43.5-43.5 43.5s-43.5-19.476-43.5-43.5 19.476-43.5 43.5-43.5 43.5 19.476 43.5 43.5z" stroke="#ebf8f1" stroke-width="5"/>
<mask id="mask12" x="813" y="422" width="33" height="29" mask-type="alpha" maskUnits="userSpaceOnUse">
<path d="m821.5 422.69-7.603 15.967h11.405s5.322-12.926 6.082-12.165c0.761 0.76 4.562 3.041 4.562 4.182 0 1.14-8.363 11.024-8.363 11.024l7.603 9.124 10.645-3.801-6.843-21.29z" clip-rule="evenodd" fill="#fff" fill-rule="evenodd"/>
</mask>
<g mask="url(#mask12)">
<path d="m781.97 455.38c0 16.797 13.616 30.413 30.413 30.413s30.413-13.616 30.413-30.413-13.616-30.413-30.413-30.413-30.413 13.616-30.413 30.413zm54.744 0c0 13.437-10.894 24.331-24.331 24.331s-24.331-10.894-24.331-24.331 10.894-24.331 24.331-24.331 24.331 10.894 24.331 24.331z" clip-rule="evenodd" fill="#ebf8f1" fill-rule="evenodd"/>
</g>
<path d="m1079.5 409.5c0 63.513-51.49 115-115 115-63.513 0-115-51.487-115-115s51.487-115 115-115c63.51 0 115 51.487 115 115z" stroke="#ebf8f1" stroke-width="5"/>
<mask id="mask13" x="969" y="326" width="82" height="73" mask-type="alpha" maskUnits="userSpaceOnUse">
<path d="m988.78 326.96-19.422 40.786h29.133s13.592-33.017 15.532-31.075c1.95 1.942 11.66 7.769 11.66 10.682s-21.37 28.161-21.37 28.161l19.43 23.306 27.19-9.711-17.48-54.38z" clip-rule="evenodd" fill="#fff" fill-rule="evenodd"/>
</mask>
<g mask="url(#mask13)">
<path d="m887.78 410.47c0 42.905 34.781 77.686 77.686 77.686 42.909 0 77.689-34.781 77.689-77.686s-34.78-77.686-77.689-77.686c-42.905 0-77.686 34.781-77.686 77.686zm139.84 0c0 34.324-27.825 62.149-62.149 62.149s-62.149-27.825-62.149-62.149 27.825-62.149 62.149-62.149 62.149 27.825 62.149 62.149z" clip-rule="evenodd" fill="#ebf8f1" fill-rule="evenodd"/>
</g>
<path d="m1062.5 306.5c0 8.284-6.72 15-15 15s-15-6.716-15-15 6.72-15 15-15 15 6.716 15 15z" stroke="#ebf8f1" stroke-width="5"/>
<mask id="mask14" x="1048" y="294" width="13" height="11" mask-type="alpha" maskUnits="userSpaceOnUse">
<path d="m1051.1 294.21-2.9 6.074h4.34s2.03-4.917 2.32-4.628 1.73 1.157 1.73 1.591-3.18 4.194-3.18 4.194l2.89 3.471 4.05-1.446-2.6-8.099z" clip-rule="evenodd" fill="#fff" fill-rule="evenodd"/>
</mask>
<g mask="url(#mask14)">
<path d="m1036.1 306.64c0 6.391 5.18 11.571 11.57 11.571s11.57-5.18 11.57-11.571c0-6.39-5.18-11.57-11.57-11.57s-11.57 5.18-11.57 11.57zm20.83 0c0 5.113-4.14 9.257-9.26 9.257-5.11 0-9.25-4.144-9.25-9.257 0-5.112 4.14-9.256 9.25-9.256 5.12 0 9.26 4.144 9.26 9.256z" clip-rule="evenodd" fill="#ebf8f1" fill-rule="evenodd"/>
</g>
<path d="m652.5 474.5c0 8.284-6.716 15-15 15s-15-6.716-15-15 6.716-15 15-15 15 6.716 15 15z" stroke="#ebf8f1" stroke-width="5"/>
<mask id="mask15" x="638" y="462" width="13" height="11" mask-type="alpha" maskUnits="userSpaceOnUse">
<path d="m641.12 462.21-2.893 6.074h4.339s2.025-4.917 2.314-4.628 1.736 1.157 1.736 1.591-3.182 4.194-3.182 4.194l2.892 3.471 4.05-1.446-2.603-8.099z" clip-rule="evenodd" fill="#fff" fill-rule="evenodd"/>
</mask>
<g mask="url(#mask15)">
<path d="m626.07 474.64c0 6.391 5.18 11.571 11.57 11.571 6.391 0 11.571-5.18 11.571-11.571 0-6.39-5.18-11.57-11.571-11.57-6.39 0-11.57 5.18-11.57 11.57zm20.827 0c0 5.113-4.144 9.257-9.257 9.257-5.112 0-9.256-4.144-9.256-9.257 0-5.112 4.144-9.256 9.256-9.256 5.113 0 9.257 4.144 9.257 9.256z" clip-rule="evenodd" fill="#ebf8f1" fill-rule="evenodd"/>
</g>
<path d="m695.5 479.5c0 11.046-8.954 20-20 20s-20-8.954-20-20 8.954-20 20-20 20 8.954 20 20z" stroke="#ebf8f1" stroke-width="5"/>
<mask id="mask16" x="676" y="463" width="17" height="15" mask-type="alpha" maskUnits="userSpaceOnUse">
<path d="m680.15 463.69-3.719 7.81h5.578s2.604-6.322 2.975-5.95c0.372 0.372 2.232 1.487 2.232 2.045s-4.091 5.393-4.091 5.393l3.719 4.463 5.207-1.86-3.348-10.413z" clip-rule="evenodd" fill="#fff" fill-rule="evenodd"/>
</mask>
<g mask="url(#mask16)">
<path d="m660.81 479.69c0 8.216 6.66 14.876 14.876 14.876s14.876-6.66 14.876-14.876-6.66-14.876-14.876-14.876-14.876 6.66-14.876 14.876zm26.777 0c0 6.573-5.328 11.901-11.901 11.901s-11.901-5.328-11.901-11.901 5.328-11.901 11.901-11.901 11.901 5.328 11.901 11.901z" clip-rule="evenodd" fill="#ebf8f1" fill-rule="evenodd"/>
</g>
<path d="m85.5 345.5c0 11.046-8.9543 20-20 20s-20-8.954-20-20 8.9543-20 20-20 20 8.954 20 20z" stroke="#ebf8f1" stroke-width="5"/>
<mask id="mask17" x="66" y="329" width="17" height="15" mask-type="alpha" maskUnits="userSpaceOnUse">
<path d="m70.149 329.69-3.719 7.81h5.5785s2.6033-6.322 2.9752-5.95 2.2314 1.487 2.2314 2.045-4.0909 5.393-4.0909 5.393l3.719 4.463 5.2066-1.86-3.3471-10.413z" clip-rule="evenodd" fill="#fff" fill-rule="evenodd"/>
</mask>
<g mask="url(#mask17)">
<path d="m50.81 345.69c0 8.216 6.6602 14.876 14.876 14.876s14.876-6.66 14.876-14.876-6.6602-14.876-14.876-14.876-14.876 6.66-14.876 14.876zm26.777 0c0 6.573-5.3282 11.901-11.901 11.901-6.5727 0-11.901-5.328-11.901-11.901s5.3281-11.901 11.901-11.901c6.5726 0 11.901 5.328 11.901 11.901z" clip-rule="evenodd" fill="#ebf8f1" fill-rule="evenodd"/>
</g>
<path d="m962.5 463.5c0 11.046-8.954 20-20 20s-20-8.954-20-20 8.954-20 20-20 20 8.954 20 20z" stroke="#ebf8f1" stroke-width="5"/>
<mask id="mask18" x="943" y="447" width="17" height="15" mask-type="alpha" maskUnits="userSpaceOnUse">
<path d="m947.15 447.69-3.719 7.81h5.578s2.604-6.322 2.975-5.95c0.372 0.372 2.232 1.487 2.232 2.045s-4.091 5.393-4.091 5.393l3.719 4.463 5.207-1.86-3.348-10.413z" clip-rule="evenodd" fill="#fff" fill-rule="evenodd"/>
</mask>
<g mask="url(#mask18)">
<path d="m927.81 463.69c0 8.216 6.66 14.876 14.876 14.876s14.876-6.66 14.876-14.876-6.66-14.876-14.876-14.876-14.876 6.66-14.876 14.876zm26.777 0c0 6.573-5.328 11.901-11.901 11.901s-11.901-5.328-11.901-11.901 5.328-11.901 11.901-11.901 11.901 5.328 11.901 11.901z" clip-rule="evenodd" fill="#ebf8f1" fill-rule="evenodd"/>
</g>
<path d="m762.5 497.5c0 11.046-8.954 20-20 20s-20-8.954-20-20 8.954-20 20-20 20 8.954 20 20z" stroke="#ebf8f1" stroke-width="5"/>
<mask id="mask19" x="743" y="481" width="17" height="15" mask-type="alpha" maskUnits="userSpaceOnUse">
<path d="m747.15 481.69-3.719 7.81h5.578s2.604-6.322 2.975-5.95c0.372 0.372 2.232 1.487 2.232 2.045s-4.091 5.393-4.091 5.393l3.719 4.463 5.207-1.86-3.348-10.413z" clip-rule="evenodd" fill="#fff" fill-rule="evenodd"/>
</mask>
<g mask="url(#mask19)">
<path d="m727.81 497.69c0 8.216 6.66 14.876 14.876 14.876s14.876-6.66 14.876-14.876-6.66-14.876-14.876-14.876-14.876 6.66-14.876 14.876zm26.777 0c0 6.573-5.328 11.901-11.901 11.901s-11.901-5.328-11.901-11.901 5.328-11.901 11.901-11.901 11.901 5.328 11.901 11.901z" clip-rule="evenodd" fill="#ebf8f1" fill-rule="evenodd"/>
</g>
<path d="m769.5 457c0 10.217-8.283 18.5-18.5 18.5s-18.5-8.283-18.5-18.5 8.283-18.5 18.5-18.5 18.5 8.283 18.5 18.5z" stroke="#ebf8f1" stroke-width="5"/>
<mask id="mask20" x="751" y="442" width="16" height="14" mask-type="alpha" maskUnits="userSpaceOnUse">
<path d="m755.34 442.25-3.471 7.289h5.206s2.43-5.901 2.777-5.553c0.347 0.347 2.083 1.388 2.083 1.909 0 0.52-3.818 5.033-3.818 5.033l3.471 4.165 4.859-1.736-3.124-9.719z" clip-rule="evenodd" fill="#fff" fill-rule="evenodd"/>
</mask>
<g mask="url(#mask20)">
<path d="m737.29 457.17c0 7.668 6.216 13.885 13.884 13.885s13.885-6.217 13.885-13.885-6.217-13.884-13.885-13.884-13.884 6.216-13.884 13.884zm24.992 0c0 6.135-4.973 11.108-11.108 11.108-6.134 0-11.107-4.973-11.107-11.108 0-6.134 4.973-11.107 11.107-11.107 6.135 0 11.108 4.973 11.108 11.107z" clip-rule="evenodd" fill="#ebf8f1" fill-rule="evenodd"/>
</g>
<path d="m1150.5 331.5c0 24.853-20.15 45-45 45s-45-20.147-45-45 20.15-45 45-45 45 20.147 45 45z" stroke="#ebf8f1" stroke-width="5"/>
<mask id="mask21" x="1107" y="298" width="34" height="30" mask-type="alpha" maskUnits="userSpaceOnUse">
<path d="m1115.3 298.13-7.85 16.488h11.78s5.5-13.347 6.28-12.562c0.79 0.785 4.71 3.14 4.71 4.318s-8.63 11.384-8.63 11.384l7.85 9.422 10.99-3.926-7.07-21.983z" clip-rule="evenodd" fill="#fff" fill-rule="evenodd"/>
</mask>
<g mask="url(#mask21)">
<path d="m1074.5 331.89c0 17.344 14.06 31.405 31.4 31.405 17.35 0 31.41-14.061 31.41-31.405 0-17.345-14.06-31.405-31.41-31.405-17.34 0-31.4 14.06-31.4 31.405zm56.53 0c0 13.875-11.25 25.124-25.13 25.124-13.87 0-25.12-11.249-25.12-25.124 0-13.876 11.25-25.124 25.12-25.124 13.88 0 25.13 11.248 25.13 25.124z" clip-rule="evenodd" fill="#ebf8f1" fill-rule="evenodd"/>
</g>
<path d="m1153.5 413.5c0 19.882-16.12 36-36 36s-36-16.118-36-36 16.12-36 36-36 36 16.118 36 36z" stroke="#ebf8f1" stroke-width="5"/>
<mask id="mask22" x="1119" y="386" width="27" height="24" mask-type="alpha" maskUnits="userSpaceOnUse">
<path d="m1125.4 386.46-6.36 13.363h9.55s4.45-10.818 5.09-10.182c0.63 0.637 3.82 2.546 3.82 3.5 0 0.955-7 9.228-7 9.228l6.36 7.636 8.91-3.182-5.73-17.818z" clip-rule="evenodd" fill="#fff" fill-rule="evenodd"/>
</mask>
<g mask="url(#mask22)">
<path d="m1092.4 413.82c0 14.058 11.4 25.455 25.46 25.455s25.45-11.397 25.45-25.455-11.39-25.454-25.45-25.454-25.46 11.396-25.46 25.454zm45.82 0c0 11.247-9.12 20.364-20.36 20.364-11.25 0-20.37-9.117-20.37-20.364 0-11.246 9.12-20.363 20.37-20.363 11.24 0 20.36 9.117 20.36 20.363z" clip-rule="evenodd" fill="#ebf8f1" fill-rule="evenodd"/>
</g>
<path d="m1032.5 295.5c0 4.971-4.03 9-9 9s-9-4.029-9-9 4.03-9 9-9 9 4.029 9 9z" stroke="#ebf8f1" stroke-width="5"/>
<mask id="mask23" x="1023" y="287" width="9" height="8" mask-type="alpha" maskUnits="userSpaceOnUse">
<path d="m1025.9 287.42-1.9 3.992h2.85s1.33-3.231 1.52-3.041 1.14 0.76 1.14 1.045-2.09 2.756-2.09 2.756l1.9 2.281 2.66-0.95-1.71-5.322z" clip-rule="evenodd" fill="#fff" fill-rule="evenodd"/>
</mask>
<g mask="url(#mask23)">
<path d="m1016 295.6c0 4.199 3.41 7.603 7.61 7.603 4.19 0 7.6-3.404 7.6-7.603s-3.41-7.603-7.6-7.603c-4.2 0-7.61 3.404-7.61 7.603zm13.69 0c0 3.359-2.73 6.083-6.08 6.083-3.36 0-6.09-2.724-6.09-6.083s2.73-6.083 6.09-6.083c3.35 0 6.08 2.724 6.08 6.083z" clip-rule="evenodd" fill="#ebf8f1" fill-rule="evenodd"/>
</g>
<path d="m1003.5 309.5c0 4.418-3.582 8-8 8s-8-3.582-8-8 3.582-8 8-8 8 3.582 8 8z" stroke="#ebf8f1" stroke-width="5"/>
<mask id="mask24" x="995" y="302" width="9" height="7" mask-type="alpha" maskUnits="userSpaceOnUse">
<path d="m997.67 302.12-1.736 3.645h2.603s1.215-2.951 1.389-2.777c0.174 0.173 1.044 0.694 1.044 0.954 0 0.261-1.912 2.517-1.912 2.517l1.732 2.083 2.43-0.868-1.56-4.86z" clip-rule="evenodd" fill="#fff" fill-rule="evenodd"/>
</mask>
<g mask="url(#mask24)">
<path d="m988.64 309.59c0 3.834 3.108 6.942 6.942 6.942s6.943-3.108 6.943-6.942-3.109-6.942-6.943-6.942-6.942 3.108-6.942 6.942zm12.495 0c0 3.067-2.486 5.553-5.553 5.553-3.068 0-5.554-2.486-5.554-5.553 0-3.068 2.486-5.554 5.554-5.554 3.067 0 5.553 2.486 5.553 5.554z" clip-rule="evenodd" fill="#ebf8f1" fill-rule="evenodd"/>
</g>
<path d="m626.5 456.5c0 4.418-3.582 8-8 8s-8-3.582-8-8 3.582-8 8-8 8 3.582 8 8z" stroke="#ebf8f1" stroke-width="5"/>
<mask id="mask25" x="618" y="449" width="9" height="7" mask-type="alpha" maskUnits="userSpaceOnUse">
<path d="m620.67 449.12-1.736 3.645h2.603s1.215-2.951 1.389-2.777c0.173 0.173 1.041 0.694 1.041 0.954 0 0.261-1.909 2.517-1.909 2.517l1.736 2.083 2.429-0.868-1.562-4.86z" clip-rule="evenodd" fill="#fff" fill-rule="evenodd"/>
</mask>
<g mask="url(#mask25)">
<path d="m611.64 456.59c0 3.834 3.108 6.942 6.942 6.942s6.942-3.108 6.942-6.942-3.108-6.942-6.942-6.942-6.942 3.108-6.942 6.942zm12.495 0c0 3.067-2.486 5.553-5.553 5.553-3.068 0-5.554-2.486-5.554-5.553 0-3.068 2.486-5.554 5.554-5.554 3.067 0 5.553 2.486 5.553 5.554z" clip-rule="evenodd" fill="#ebf8f1" fill-rule="evenodd"/>
</g>
<path d="m612.5 470.5c0 4.418-3.582 8-8 8s-8-3.582-8-8 3.582-8 8-8 8 3.582 8 8z" stroke="#ebf8f1" stroke-width="5"/>
<mask id="mask26" x="604" y="463" width="9" height="7" mask-type="alpha" maskUnits="userSpaceOnUse">
<path d="m606.67 463.12-1.736 3.645h2.603s1.215-2.951 1.389-2.777c0.173 0.173 1.041 0.694 1.041 0.954 0 0.261-1.909 2.517-1.909 2.517l1.736 2.083 2.429-0.868-1.562-4.86z" clip-rule="evenodd" fill="#fff" fill-rule="evenodd"/>
</mask>
<g mask="url(#mask26)">
<path d="m597.64 470.59c0 3.834 3.108 6.942 6.942 6.942s6.942-3.108 6.942-6.942-3.108-6.942-6.942-6.942-6.942 3.108-6.942 6.942zm12.495 0c0 3.067-2.486 5.553-5.553 5.553-3.068 0-5.554-2.486-5.554-5.553 0-3.068 2.486-5.554 5.554-5.554 3.067 0 5.553 2.486 5.553 5.554z" clip-rule="evenodd" fill="#ebf8f1" fill-rule="evenodd"/>
</g>
<path d="m100.5 352.5c0 4.418-3.5817 8-8 8s-8-3.582-8-8 3.5817-8 8-8 8 3.582 8 8z" stroke="#ebf8f1" stroke-width="5"/>
<mask id="mask27" x="92" y="345" width="9" height="7" mask-type="alpha" maskUnits="userSpaceOnUse">
<path d="m94.67 345.12-1.7355 3.645h2.6033s1.2149-2.951 1.3884-2.777c0.1736 0.173 1.0413 0.694 1.0413 0.954 0 0.261-1.909 2.517-1.909 2.517l1.7355 2.083 2.4294-0.868-1.5616-4.86z" clip-rule="evenodd" fill="#fff" fill-rule="evenodd"/>
</mask>
<g mask="url(#mask27)">
<path d="m85.644 352.59c0 3.834 3.1081 6.942 6.9422 6.942 3.834 0 6.9421-3.108 6.9421-6.942s-3.1081-6.942-6.9421-6.942c-3.8341 0-6.9422 3.108-6.9422 6.942zm12.496 0c0 3.067-2.4865 5.553-5.5537 5.553-3.0673 0-5.5537-2.486-5.5537-5.553 0-3.068 2.4864-5.554 5.5537-5.554 3.0672 0 5.5537 2.486 5.5537 5.554z" clip-rule="evenodd" fill="#ebf8f1" fill-rule="evenodd"/>
</g>
<path d="m880.5 460.5c0 4.418-3.582 8-8 8s-8-3.582-8-8 3.582-8 8-8 8 3.582 8 8z" stroke="#ebf8f1" stroke-width="5"/>
<mask id="mask28" x="872" y="453" width="9" height="7" mask-type="alpha" maskUnits="userSpaceOnUse">
<path d="m874.67 453.12-1.736 3.645h2.603s1.215-2.951 1.389-2.777c0.173 0.173 1.041 0.694 1.041 0.954 0 0.261-1.909 2.517-1.909 2.517l1.736 2.083 2.429-0.868-1.562-4.86z" clip-rule="evenodd" fill="#fff" fill-rule="evenodd"/>
</mask>
<g mask="url(#mask28)">
<path d="m865.64 460.59c0 3.834 3.108 6.942 6.942 6.942s6.942-3.108 6.942-6.942-3.108-6.942-6.942-6.942-6.942 3.108-6.942 6.942zm12.495 0c0 3.067-2.486 5.553-5.553 5.553-3.068 0-5.554-2.486-5.554-5.553 0-3.068 2.486-5.554 5.554-5.554 3.067 0 5.553 2.486 5.553 5.554z" clip-rule="evenodd" fill="#ebf8f1" fill-rule="evenodd"/>
</g>
<path d="m780.5 490.5c0 4.418-3.582 8-8 8s-8-3.582-8-8 3.582-8 8-8 8 3.582 8 8z" stroke="#ebf8f1" stroke-width="5"/>
<mask id="mask29" x="772" y="483" width="9" height="7" mask-type="alpha" maskUnits="userSpaceOnUse">
<path d="m774.67 483.12-1.736 3.645h2.603s1.215-2.951 1.389-2.777c0.173 0.173 1.041 0.694 1.041 0.954 0 0.261-1.909 2.517-1.909 2.517l1.736 2.083 2.429-0.868-1.562-4.86z" clip-rule="evenodd" fill="#fff" fill-rule="evenodd"/>
</mask>
<g mask="url(#mask29)">
<path d="m765.64 490.59c0 3.834 3.108 6.942 6.942 6.942s6.942-3.108 6.942-6.942-3.108-6.942-6.942-6.942-6.942 3.108-6.942 6.942zm12.495 0c0 3.067-2.486 5.553-5.553 5.553-3.068 0-5.554-2.486-5.554-5.553 0-3.068 2.486-5.554 5.554-5.554 3.067 0 5.553 2.486 5.553 5.554z" clip-rule="evenodd" fill="#ebf8f1" fill-rule="evenodd"/>
</g>
<path d="m902.5 450c0 3.038-2.462 5.5-5.5 5.5s-5.5-2.462-5.5-5.5 2.462-5.5 5.5-5.5 5.5 2.462 5.5 5.5z" stroke="#ebf8f1" stroke-width="5"/>
<mask id="mask30" x="897" y="444" width="6" height="6" mask-type="alpha" maskUnits="userSpaceOnUse">
<path d="m898.65 444.38-1.322 2.777h1.983s0.926-2.248 1.058-2.115c0.132 0.132 0.793 0.528 0.793 0.727 0 0.198-1.454 1.917-1.454 1.917l1.322 1.587 1.851-0.661-1.19-3.703z" clip-rule="evenodd" fill="#fff" fill-rule="evenodd"/>
</mask>
<g mask="url(#mask30)">
<path d="m891.78 450.07c0 2.921 2.368 5.289 5.289 5.289s5.289-2.368 5.289-5.289-2.368-5.289-5.289-5.289-5.289 2.368-5.289 5.289zm9.521 0c0 2.337-1.895 4.232-4.232 4.232s-4.231-1.895-4.231-4.232 1.894-4.231 4.231-4.231 4.232 1.894 4.232 4.231z" clip-rule="evenodd" fill="#ebf8f1" fill-rule="evenodd"/>
</g>
</svg>
