<svg version="1.1" viewBox="0 0 176.46 27.412" xmlns="http://www.w3.org/2000/svg">
<path d="m16.871 19.872h-11.863l-2.6922 7.1878h-2.3153l9.8892-25.651h2.0998l9.8892 25.651h-2.2973zm-11.181-1.8498h10.482l-5.2408-13.97zm21.932 9.0376h-2.1537v-27.06h2.1537zm7.7893-19.062 0.0718 3.1007c0.7179-1.151 1.6153-2.0143 2.6922-2.5898 1.0768-0.5755 2.2733-0.86325 3.5895-0.86325 3.0631 0 5.0074 1.2332 5.833 3.6996 0.694-1.1862 1.6213-2.0994 2.7819-2.7395s2.4409-0.96014 3.8408-0.96014c4.1639 0 6.2877 2.2315 6.3715 6.6945v12.72h-2.1538v-12.561c-0.0119-1.703-0.3858-2.9656-1.1217-3.7877-0.7359-0.8222-1.9353-1.2332-3.5985-1.2332-1.5435 0.0235-2.8477 0.5138-3.9126 1.471s-1.6572 2.1229-1.7768 3.497v12.614h-2.1538v-12.72c-0.0119-1.6325-0.4038-2.851-1.1755-3.6555-0.7718-0.8046-1.9593-1.2068-3.5627-1.2068-1.352 0-2.5126 0.3787-3.4818 1.1363-0.9692 0.7575-1.6871 1.8821-2.1537 3.3737v13.072h-2.1538v-19.062zm42.877 19.062c-0.2154-0.599-0.353-1.4857-0.4128-2.6602-0.7538 0.9631-1.714 1.706-2.8806 2.2286-1.1666 0.5227-2.402 0.784-3.7062 0.784-1.8666 0-3.3772-0.5109-4.5318-1.5327s-1.732-2.3137-1.732-3.8758c0-1.8557 0.7867-3.3238 2.3602-4.4043 1.5734-1.0805 3.766-1.6208 6.5778-1.6208h3.8947v-2.1669c0-1.3624-0.4278-2.4341-1.2833-3.2151-0.8555-0.7811-2.1029-1.1716-3.7421-1.1716-1.4956 0-2.734 0.3759-3.7152 1.1275-0.9811 0.7517-1.4717 1.656-1.4717 2.7131l-2.1537-0.0176c0-1.5151 0.7179-2.8276 2.1537-3.9375 1.4358-1.1099 3.2007-1.6648 5.2946-1.6648 2.1657 0 3.8737 0.53145 5.1241 1.5944 1.2503 1.063 1.8935 2.5456 1.9293 4.4484v9.02c0 1.8439 0.1975 3.2239 0.5923 4.14v0.2114zm-6.7483-1.515c1.4358 0 2.719-0.3406 3.8498-1.0218 1.1307-0.6812 1.9533-1.5915 2.4678-2.7307v-4.1929h-3.8408c-2.1418 0.0235-3.8169 0.4081-5.0254 1.1539s-1.8127 1.7706-1.8127 3.0742c0 1.0688 0.4038 1.9555 1.2114 2.6602 0.8077 0.7047 1.8576 1.0571 3.1499 1.0571z" clip-rule="evenodd" fill="#424e68" fill-rule="evenodd"/>
<path d="m107.82 18.709c-0.264 2.7365-1.293 4.8711-3.087 6.4038-1.795 1.5327-4.182 2.2991-7.1615 2.2991-2.0819 0-3.9156-0.4845-5.5009-1.4534-1.5854-0.969-2.8089-2.3461-3.6704-4.1313-0.8614-1.7852-1.3101-3.8581-1.346-6.2188v-2.396c0-2.4194 0.4367-4.5511 1.3102-6.395 0.8734-1.844 2.1267-3.265 3.76-4.2634 1.6333-0.99832 3.5207-1.4975 5.6625-1.4975 2.8841 0 5.2051 0.76927 6.9641 2.3078 1.759 1.5386 2.782 3.7113 3.069 6.5184h-4.523c-0.216-1.844-0.763-3.174-1.642-3.9903-0.88-0.81626-2.169-1.2244-3.8681-1.2244-1.9743 0-3.4908 0.70762-4.5497 2.1229-1.059 1.4152-1.6004 3.4911-1.6243 6.2276v2.2727c0 2.7717 0.5055 4.8858 1.5166 6.3421 1.011 1.4564 2.4917 2.1846 4.442 2.1846 1.7829 0 3.1225-0.3935 4.0205-1.1804 0.897-0.7869 1.466-2.0964 1.705-3.9286zm8.274 8.3505h-4.362v-27.06h4.362zm13.299 0.3524c-2.764 0-5.005-0.8544-6.722-2.5633s-2.575-3.9844-2.575-6.8267v-0.5285c0-1.9027 0.374-3.6027 1.122-5.1002 0.747-1.4974 1.797-2.6631 3.149-3.497 1.353-0.83388 2.86-1.2508 4.523-1.2508 2.645 0 4.688 0.828 6.129 2.484 1.442 1.656 2.163 3.9991 2.163 7.0293v1.7265h-12.689c0.132 1.5738 0.667 2.8187 1.606 3.7348 0.94 0.9161 2.121 1.3741 3.545 1.3741 1.998 0 3.626-0.7927 4.882-2.3783l2.351 2.2022c-0.778 1.1392-1.816 2.023-3.114 2.6514-1.298 0.6283-2.755 0.9425-4.37 0.9425zm-0.521-16.331c-1.196 0-2.162 0.4111-2.898 1.2332-0.736 0.8222-1.206 1.9673-1.409 3.4354h8.31v-0.3171c-0.096-1.4329-0.485-2.5163-1.167-3.2504-0.682-0.734-1.627-1.1011-2.836-1.1011zm23.296 15.979c-0.191-0.3641-0.358-0.9572-0.502-1.7793-1.388 1.4211-3.087 2.1317-5.097 2.1317-1.951 0-3.542-0.5462-4.774-1.6384-1.233-1.0923-1.849-2.4429-1.849-4.052 0-2.0318 0.769-3.5909 2.306-4.6773 1.538-1.0864 3.736-1.6296 6.596-1.6296h2.674v-1.2508c0-0.9866-0.281-1.7764-0.843-2.3696-0.563-0.5931-1.418-0.8896-2.567-0.8896-0.993 0-1.806 0.2437-2.441 0.7311-0.634 0.4874-0.951 1.1069-0.951 1.8586h-4.361c0-1.0453 0.353-2.023 1.059-2.9333 0.706-0.9102 1.666-1.6237 2.88-2.1404 1.215-0.51677 2.57-0.77516 4.066-0.77516 2.273 0 4.086 0.56081 5.438 1.6824 1.352 1.1217 2.046 2.6984 2.082 4.7302v8.5972c0 1.7148 0.245 3.083 0.736 4.1048v0.2995zm-4.792-3.083c0.862 0 1.673-0.2055 2.432-0.6166 0.76-0.411 1.331-0.963 1.714-1.656v-3.5939h-2.351c-1.615 0-2.83 0.276-3.643 0.828-0.814 0.552-1.221 1.333-1.221 2.3431 0 0.8221 0.279 1.4769 0.835 1.9643s1.301 0.7311 2.234 0.7311zm17.123-15.979 0.125 2.2022c1.436-1.703 3.321-2.5545 5.654-2.5545 4.044 0 6.102 2.2726 6.174 6.8178v12.596h-4.362v-12.35c0-1.2097-0.266-2.1053-0.798-2.6866-0.533-0.5814-1.403-0.8721-2.612-0.8721-1.758 0-3.069 0.781-3.93 2.3431v13.565h-4.361v-19.062z" clip-rule="evenodd" fill="#2bc06e" fill-rule="evenodd"/>
</svg>
