<svg fill="none" version="1.1" viewBox="0 0 1440 563" xmlns="http://www.w3.org/2000/svg">
<path d="m0 437.47s360-138.94 731 0c371 138.94 709 0 709 0v126.75h-1440z" clip-rule="evenodd" fill="#ebf8f1" fill-rule="evenodd"/>
<path d="m1184.5 355c0 28.995-23.51 52.5-52.5 52.5s-52.5-23.505-52.5-52.5 23.51-52.5 52.5-52.5 52.5 23.505 52.5 52.5z" stroke="#ebf8f1" stroke-width="5"/>
<mask id="mask0" x="1134" y="306" width="39" height="35" mask-type="alpha" maskUnits="userSpaceOnUse">
<path d="m1143.4 306.36-9.09 19.091h13.64s6.36-15.455 7.27-14.546 5.46 3.637 5.46 5c0 1.364-10 13.182-10 13.182l9.09 10.909 12.73-4.545-8.19-25.455z" clip-rule="evenodd" fill="#fff" fill-rule="evenodd"/>
</mask>
<g transform="translate(0,10)" mask="url(#mask0)">
<path d="m1096.1 345.45c0 20.084 16.28 36.364 36.37 36.364 20.08 0 36.36-16.28 36.36-36.364 0-20.083-16.28-36.363-36.36-36.363-20.09 0-36.37 16.28-36.37 36.363zm65.46 0c0 16.067-13.03 29.091-29.09 29.091-16.07 0-29.1-13.024-29.1-29.091 0-16.066 13.03-29.09 29.1-29.09 16.06 0 29.09 13.024 29.09 29.09z" clip-rule="evenodd" fill="#ebf8f1" fill-rule="evenodd"/>
</g>
<path d="m1285.5 240c0 23.472-19.03 42.5-42.5 42.5s-42.5-19.028-42.5-42.5 19.03-42.5 42.5-42.5 42.5 19.028 42.5 42.5z" stroke="#ebf8f1" stroke-width="5"/>
<mask id="mask1" x="1244" y="198" width="33" height="28" mask-type="alpha" maskUnits="userSpaceOnUse">
<path d="m1252.3 198.39-7.44 15.62h11.16s5.2-12.645 5.95-11.901c0.74 0.743 4.46 2.975 4.46 4.091 0 1.115-8.18 10.785-8.18 10.785l7.44 8.925 10.41-3.719-6.7-20.826z" clip-rule="evenodd" fill="#fff" fill-rule="evenodd"/>
</mask>
<g transform="translate(0,10)" mask="url(#mask1)">
<path d="m1213.6 230.37c0 16.431 13.32 29.752 29.75 29.752s29.75-13.321 29.75-29.752c0-16.432-13.32-29.752-29.75-29.752s-29.75 13.32-29.75 29.752zm53.55 0c0 13.145-10.65 23.801-23.8 23.801-13.14 0-23.8-10.656-23.8-23.801 0-13.146 10.66-23.802 23.8-23.802 13.15 0 23.8 10.656 23.8 23.802z" clip-rule="evenodd" fill="#ebf8f1" fill-rule="evenodd"/>
</g>
<path d="m1389.5 41c0 15.74-12.76 28.5-28.5 28.5s-28.5-12.76-28.5-28.5 12.76-28.5 28.5-28.5 28.5 12.76 28.5 28.5z" stroke="#ebf8f1" stroke-width="5"/>
<mask id="mask2" x="1362" y="9" width="22" height="20" mask-type="alpha" maskUnits="userSpaceOnUse">
<path d="m1367.4 9.2231-5.13 10.76h7.69s3.58-8.7108 4.1-8.1984c0.51 0.5124 3.07 2.0496 3.07 2.8182s-5.64 7.4298-5.64 7.4298l5.13 6.1487 7.17-2.562-4.61-14.347z" clip-rule="evenodd" fill="#fff" fill-rule="evenodd"/>
</mask>
<g transform="translate(0,10)" mask="url(#mask2)">
<path d="m1340.8 31.256c0 11.32 9.18 20.496 20.5 20.496s20.49-9.1763 20.49-20.496c0-11.32-9.17-20.496-20.49-20.496s-20.5 9.1763-20.5 20.496zm36.89 0c0 9.0557-7.34 16.397-16.39 16.397-9.06 0-16.4-7.341-16.4-16.397 0-9.0556 7.34-16.397 16.4-16.397 9.05 0 16.39 7.3411 16.39 16.397z" clip-rule="evenodd" fill="#ebf8f1" fill-rule="evenodd"/>
</g>
<path d="m1435.4 168.62c8.22 28.668-8.36 58.572-37.03 66.792-28.66 8.221-58.57-8.356-66.79-37.024s8.36-58.572 37.03-66.792c28.66-8.221 58.57 8.355 66.79 37.024z" stroke="#ebf8f1" stroke-width="5"/>
<mask id="mask3" x="1380" y="129" width="41" height="32" mask-type="alpha" maskUnits="userSpaceOnUse">
<path d="m1383.8 132.13-3.57 21.426 13.47-3.861s1.9-17.063 3.06-16.423c1.15 0.64 6.41 2.046 6.8 3.393s-6.14 15.848-6.14 15.848l12.06 8.199 11.29-8.093-15.29-22.819z" clip-rule="evenodd" fill="#fff" fill-rule="evenodd"/>
</mask>
<g transform="translate(0,10)" mask="url(#mask3)">
<path d="m1348.2 184.12c5.69 19.831 26.37 31.298 46.2 25.612 19.84-5.687 31.3-26.374 25.62-46.205-5.69-19.832-26.38-31.299-46.21-25.612s-31.3 26.373-25.61 46.205zm64.63-18.534c4.55 15.865-4.62 32.415-20.48 36.964-15.87 4.549-32.42-4.624-36.97-20.49-4.55-15.865 4.63-32.414 20.49-36.963 15.87-4.55 32.42 4.624 36.96 20.489z" clip-rule="evenodd" fill="#ebf8f1" fill-rule="evenodd"/>
</g>
<path d="m1048.5 467c0 37.279-30.22 67.5-67.5 67.5-37.279 0-67.5-30.221-67.5-67.5s30.221-67.5 67.5-67.5c37.28 0 67.5 30.221 67.5 67.5z" stroke="#ebf8f1" stroke-width="5"/>
<mask id="mask4" x="983" y="407" width="50" height="44" mask-type="alpha" maskUnits="userSpaceOnUse">
<path d="m995.46 407.83-11.57 24.298h17.357s8.1-19.67 9.25-18.513c1.16 1.157 6.95 4.628 6.95 6.364 0 1.735-12.73 16.777-12.73 16.777l11.57 13.884 16.2-5.785-10.42-32.397z" clip-rule="evenodd" fill="#fff" fill-rule="evenodd"/>
</mask>
<g transform="translate(0,10)" mask="url(#mask4)">
<path d="m935.3 457.58c0 25.56 20.721 46.281 46.281 46.281 25.562 0 46.282-20.721 46.282-46.281s-20.72-46.281-46.282-46.281c-25.56 0-46.281 20.721-46.281 46.281zm83.303 0c0 20.448-16.57 37.025-37.022 37.025-20.448 0-37.025-16.577-37.025-37.025s16.577-37.025 37.025-37.025c20.452 0 37.022 16.577 37.022 37.025z" clip-rule="evenodd" fill="#ebf8f1" fill-rule="evenodd"/>
</g>
<path d="m1102.5 417c0 17.397-14.1 31.5-31.5 31.5s-31.5-14.103-31.5-31.5 14.1-31.5 31.5-31.5 31.5 14.103 31.5 31.5z" stroke="#ebf8f1" stroke-width="5"/>
<mask id="mask5" x="1072" y="383" width="25" height="21" mask-type="alpha" maskUnits="userSpaceOnUse">
<path d="m1078 383.12-5.62 11.802h8.43s3.94-9.554 4.5-8.992 3.37 2.248 3.37 3.091-6.18 8.149-6.18 8.149l5.62 6.744 7.87-2.81-5.06-15.736z" clip-rule="evenodd" fill="#fff" fill-rule="evenodd"/>
</mask>
<g transform="translate(0,10)" mask="url(#mask5)">
<path d="m1048.8 407.28c0 12.415 10.07 22.479 22.48 22.479 12.42 0 22.48-10.064 22.48-22.479s-10.06-22.479-22.48-22.479c-12.41 0-22.48 10.064-22.48 22.479zm40.46 0c0 9.932-8.05 17.984-17.98 17.984s-17.98-8.052-17.98-17.984 8.05-17.983 17.98-17.983 17.98 8.051 17.98 17.983z" clip-rule="evenodd" fill="#ebf8f1" fill-rule="evenodd"/>
</g>
<path d="m363.5 364c0 11.322-9.178 20.5-20.5 20.5s-20.5-9.178-20.5-20.5 9.178-20.5 20.5-20.5 20.5 9.178 20.5 20.5z" stroke="#ebf8f1" stroke-width="5"/>
<mask id="mask6" x="343" y="337" width="17" height="15" mask-type="alpha" maskUnits="userSpaceOnUse">
<path d="m347.75 337.84-3.802 7.983h5.703s2.661-6.463 3.041-6.082c0.38 0.38 2.281 1.52 2.281 2.091 0 0.57-4.182 5.512-4.182 5.512l3.802 4.562 5.322-1.901-3.421-10.645z" clip-rule="evenodd" fill="#fff" fill-rule="evenodd"/>
</mask>
<g transform="translate(0,10)" mask="url(#mask6)">
<path d="m327.98 354.19c0 8.398 6.809 15.207 15.207 15.207s15.207-6.809 15.207-15.207-6.809-15.207-15.207-15.207-15.207 6.809-15.207 15.207zm27.372 0c0 6.719-5.446 12.165-12.165 12.165s-12.165-5.446-12.165-12.165 5.446-12.165 12.165-12.165 12.165 5.446 12.165 12.165z" clip-rule="evenodd" fill="#ebf8f1" fill-rule="evenodd"/>
</g>
<path d="m908.5 454c0 17.397-14.103 31.5-31.5 31.5s-31.5-14.103-31.5-31.5 14.103-31.5 31.5-31.5 31.5 14.103 31.5 31.5z" stroke="#ebf8f1" stroke-width="5"/>
<mask id="mask7" x="878" y="420" width="25" height="21" mask-type="alpha" maskUnits="userSpaceOnUse">
<path d="m884.02 420.12-5.62 11.802h8.43s3.934-9.554 4.496-8.992 3.372 2.248 3.372 3.091-6.182 8.149-6.182 8.149l5.62 6.744 7.868-2.81-5.058-15.736z" clip-rule="evenodd" fill="#fff" fill-rule="evenodd"/>
</mask>
<g transform="translate(0,10)" mask="url(#mask7)">
<path d="m854.8 444.28c0 12.415 10.064 22.479 22.479 22.479s22.479-10.064 22.479-22.479-10.064-22.479-22.479-22.479-22.479 10.064-22.479 22.479zm40.463 0c0 9.932-8.052 17.984-17.984 17.984s-17.983-8.052-17.983-17.984 8.051-17.983 17.983-17.983 17.984 8.051 17.984 17.983z" clip-rule="evenodd" fill="#ebf8f1" fill-rule="evenodd"/>
</g>
<path d="m1082.5 370.5c0 8.837-7.16 16-16 16s-16-7.163-16-16 7.16-16 16-16 16 7.163 16 16z" stroke="#ebf8f1" stroke-width="5"/>
<mask id="mask8" x="1067" y="347" width="14" height="12" mask-type="alpha" maskUnits="userSpaceOnUse">
<path d="m1070.3 347.5-3.06 6.421h4.59s2.14-5.198 2.45-4.892c0.3 0.306 1.83 1.223 1.83 1.682 0 0.458-3.36 4.434-3.36 4.434l3.06 3.669 4.28-1.529-2.76-8.562z" clip-rule="evenodd" fill="#fff" fill-rule="evenodd"/>
</mask>
<g transform="translate(0,10)" mask="url(#mask8)">
<path d="m1054.4 360.65c0 6.755 5.48 12.232 12.23 12.232 6.76 0 12.23-5.477 12.23-12.232s-5.47-12.231-12.23-12.231c-6.75 0-12.23 5.476-12.23 12.231zm22.02 0c0 5.404-4.38 9.785-9.79 9.785-5.4 0-9.78-4.381-9.78-9.785s4.38-9.785 9.78-9.785c5.41 0 9.79 4.381 9.79 9.785z" clip-rule="evenodd" fill="#ebf8f1" fill-rule="evenodd"/>
</g>
<path d="m1232.5 485.5c0 8.837-7.16 16-16 16s-16-7.163-16-16 7.16-16 16-16 16 7.163 16 16z" stroke="#ebf8f1" stroke-width="5"/>
<mask id="mask9" x="1217" y="462" width="14" height="12" mask-type="alpha" maskUnits="userSpaceOnUse">
<path d="m1220.3 462.5-3.06 6.421h4.59s2.14-5.198 2.45-4.892c0.3 0.306 1.83 1.223 1.83 1.682 0 0.458-3.36 4.434-3.36 4.434l3.06 3.669 4.28-1.529-2.76-8.562z" clip-rule="evenodd" fill="#fff" fill-rule="evenodd"/>
</mask>
<g transform="translate(0,10)" mask="url(#mask9)">
<path d="m1204.4 475.65c0 6.755 5.48 12.232 12.23 12.232 6.76 0 12.23-5.477 12.23-12.232s-5.47-12.231-12.23-12.231c-6.75 0-12.23 5.476-12.23 12.231zm22.02 0c0 5.404-4.38 9.785-9.79 9.785-5.4 0-9.78-4.381-9.78-9.785s4.38-9.785 9.78-9.785c5.41 0 9.79 4.381 9.79 9.785z" clip-rule="evenodd" fill="#ebf8f1" fill-rule="evenodd"/>
</g>
<path d="m1040.5 393.5c0 8.837-7.16 16-16 16s-16-7.163-16-16 7.16-16 16-16 16 7.163 16 16z" stroke="#ebf8f1" stroke-width="5"/>
<mask id="mask10" x="1025" y="370" width="14" height="12" mask-type="alpha" maskUnits="userSpaceOnUse">
<path d="m1028.3 370.5-3.06 6.421h4.59s2.14-5.198 2.45-4.892c0.3 0.306 1.83 1.223 1.83 1.682 0 0.458-3.36 4.434-3.36 4.434l3.06 3.669 4.28-1.529-2.76-8.562z" clip-rule="evenodd" fill="#fff" fill-rule="evenodd"/>
</mask>
<g transform="translate(0,10)" mask="url(#mask10)">
<path d="m1012.4 383.65c0 6.755 5.48 12.232 12.23 12.232 6.76 0 12.23-5.477 12.23-12.232s-5.47-12.231-12.23-12.231c-6.75 0-12.23 5.476-12.23 12.231zm22.02 0c0 5.404-4.38 9.785-9.79 9.785-5.4 0-9.78-4.381-9.78-9.785s4.38-9.785 9.78-9.785c5.41 0 9.79 4.381 9.79 9.785z" clip-rule="evenodd" fill="#ebf8f1" fill-rule="evenodd"/>
</g>
<path d="m842.5 451.5c0 8.837-7.163 16-16 16s-16-7.163-16-16 7.163-16 16-16 16 7.163 16 16z" stroke="#ebf8f1" stroke-width="5"/>
<mask id="mask11" x="827" y="428" width="14" height="12" mask-type="alpha" maskUnits="userSpaceOnUse">
<path d="m830.32 428.5-3.058 6.421h4.586s2.141-5.198 2.447-4.892 1.834 1.223 1.834 1.682c0 0.458-3.363 4.434-3.363 4.434l3.058 3.669 4.281-1.529-2.752-8.562z" clip-rule="evenodd" fill="#fff" fill-rule="evenodd"/>
</mask>
<g transform="translate(0,10)" mask="url(#mask11)">
<path d="m814.42 441.65c0 6.755 5.476 12.232 12.231 12.232s12.232-5.477 12.232-12.232-5.477-12.231-12.232-12.231-12.231 5.476-12.231 12.231zm22.016 0c0 5.404-4.381 9.785-9.785 9.785s-9.785-4.381-9.785-9.785 4.381-9.785 9.785-9.785 9.785 4.381 9.785 9.785z" clip-rule="evenodd" fill="#ebf8f1" fill-rule="evenodd"/>
</g>
<path d="m1175.5 465c0 24.024-19.48 43.5-43.5 43.5s-43.5-19.476-43.5-43.5 19.48-43.5 43.5-43.5 43.5 19.476 43.5 43.5z" stroke="#ebf8f1" stroke-width="5"/>
<mask id="mask12" x="1133" y="422" width="33" height="29" mask-type="alpha" maskUnits="userSpaceOnUse">
<path d="m1141.5 422.69-7.6 15.966h11.41s5.32-12.925 6.08-12.165c0.76 0.761 4.56 3.042 4.56 4.182 0 1.141-8.36 11.025-8.36 11.025l7.6 9.124 10.64-3.802-6.84-21.289z" clip-rule="evenodd" fill="#fff" fill-rule="evenodd"/>
</mask>
<g transform="translate(0,10)" mask="url(#mask12)">
<path d="m1102 455.38c0 16.797 13.61 30.413 30.41 30.413s30.41-13.616 30.41-30.413-13.61-30.413-30.41-30.413-30.41 13.616-30.41 30.413zm54.74 0c0 13.437-10.89 24.331-24.33 24.331s-24.33-10.894-24.33-24.331 10.89-24.331 24.33-24.331 24.33 10.894 24.33 24.331z" clip-rule="evenodd" fill="#ebf8f1" fill-rule="evenodd"/>
</g>
<path d="m1399.5 419.5c0 63.513-51.49 115-115 115s-115-51.487-115-115 51.49-115 115-115 115 51.487 115 115z" stroke="#ebf8f1" stroke-width="5"/>
<mask id="mask13" x="1289" y="326" width="82" height="73" mask-type="alpha" maskUnits="userSpaceOnUse">
<path d="m1308.8 326.96-19.42 40.786h29.13s13.59-33.017 15.53-31.075c1.95 1.942 11.66 7.769 11.66 10.682s-21.37 28.161-21.37 28.161l19.43 23.306 27.19-9.711-17.48-54.38z" clip-rule="evenodd" fill="#fff" fill-rule="evenodd"/>
</mask>
<g transform="translate(0,10)" mask="url(#mask13)">
<path d="m1207.8 410.47c0 42.905 34.78 77.686 77.68 77.686 42.91 0 77.69-34.781 77.69-77.686s-34.78-77.686-77.69-77.686c-42.9 0-77.68 34.781-77.68 77.686zm139.83 0c0 34.324-27.83 62.149-62.15 62.149s-62.15-27.825-62.15-62.149 27.83-62.149 62.15-62.149 62.15 27.825 62.15 62.149z" clip-rule="evenodd" fill="#ebf8f1" fill-rule="evenodd"/>
</g>
<path d="m1382.5 316.5c0 8.284-6.72 15-15 15s-15-6.716-15-15 6.72-15 15-15 15 6.716 15 15z" stroke="#ebf8f1" stroke-width="5"/>
<mask id="mask14" x="1368" y="294" width="13" height="11" mask-type="alpha" maskUnits="userSpaceOnUse">
<path d="m1371.1 294.21-2.9 6.074h4.34s2.03-4.917 2.32-4.628c0.28 0.289 1.73 1.157 1.73 1.591s-3.18 4.194-3.18 4.194l2.89 3.471 4.05-1.446-2.6-8.099z" clip-rule="evenodd" fill="#fff" fill-rule="evenodd"/>
</mask>
<g transform="translate(0,10)" mask="url(#mask14)">
<path d="m1356.1 306.64c0 6.391 5.18 11.571 11.57 11.571s11.57-5.18 11.57-11.571c0-6.39-5.18-11.57-11.57-11.57s-11.57 5.18-11.57 11.57zm20.83 0c0 5.113-4.14 9.257-9.26 9.257-5.11 0-9.25-4.144-9.25-9.257 0-5.112 4.14-9.256 9.25-9.256 5.12 0 9.26 4.144 9.26 9.256z" clip-rule="evenodd" fill="#ebf8f1" fill-rule="evenodd"/>
</g>
<path d="m972.5 484.5c0 8.284-6.716 15-15 15s-15-6.716-15-15 6.716-15 15-15 15 6.716 15 15z" stroke="#ebf8f1" stroke-width="5"/>
<mask id="mask15" x="958" y="462" width="13" height="11" mask-type="alpha" maskUnits="userSpaceOnUse">
<path d="m961.12 462.21-2.892 6.074h4.339s2.024-4.917 2.314-4.628c0.289 0.29 1.735 1.157 1.735 1.591s-3.182 4.194-3.182 4.194l2.893 3.472 4.049-1.447-2.603-8.099z" clip-rule="evenodd" fill="#fff" fill-rule="evenodd"/>
</mask>
<g transform="translate(0,10)" mask="url(#mask15)">
<path d="m946.07 474.64c0 6.391 5.18 11.571 11.57 11.571 6.391 0 11.571-5.18 11.571-11.571 0-6.39-5.18-11.57-11.571-11.57-6.39 0-11.57 5.18-11.57 11.57zm20.827 0c0 5.113-4.144 9.257-9.257 9.257-5.112 0-9.256-4.144-9.256-9.257 0-5.112 4.144-9.256 9.256-9.256 5.113 0 9.257 4.144 9.257 9.256z" clip-rule="evenodd" fill="#ebf8f1" fill-rule="evenodd"/>
</g>
<path d="m1015.5 489.5c0 11.046-8.95 20-20 20-11.046 0-20-8.954-20-20s8.954-20 20-20c11.05 0 20 8.954 20 20z" stroke="#ebf8f1" stroke-width="5"/>
<mask id="mask16" x="996" y="463" width="17" height="15" mask-type="alpha" maskUnits="userSpaceOnUse">
<path d="m1000.2 463.69-3.72 7.81h5.58s2.6-6.322 2.97-5.95c0.38 0.372 2.23 1.487 2.23 2.045s-4.09 5.393-4.09 5.393l3.72 4.463 5.21-1.86-3.35-10.413z" clip-rule="evenodd" fill="#fff" fill-rule="evenodd"/>
</mask>
<g transform="translate(0,10)" mask="url(#mask16)">
<path d="m980.81 479.69c0 8.215 6.66 14.876 14.876 14.876 8.213 0 14.873-6.661 14.873-14.876 0-8.216-6.66-14.876-14.873-14.876-8.216 0-14.876 6.66-14.876 14.876zm26.779 0c0 6.572-5.33 11.9-11.903 11.9s-11.901-5.328-11.901-11.9c0-6.573 5.328-11.901 11.901-11.901s11.903 5.328 11.903 11.901z" clip-rule="evenodd" fill="#ebf8f1" fill-rule="evenodd"/>
</g>
<path d="m405.5 355.5c0 11.046-8.954 20-20 20s-20-8.954-20-20 8.954-20 20-20 20 8.954 20 20z" stroke="#ebf8f1" stroke-width="5"/>
<mask id="mask17" x="386" y="329" width="17" height="15" mask-type="alpha" maskUnits="userSpaceOnUse">
<path d="m390.15 329.69-3.719 7.81h5.578s2.604-6.322 2.975-5.95c0.372 0.372 2.232 1.487 2.232 2.045s-4.091 5.393-4.091 5.393l3.719 4.463 5.207-1.86-3.348-10.413z" clip-rule="evenodd" fill="#fff" fill-rule="evenodd"/>
</mask>
<g transform="translate(0,10)" mask="url(#mask17)">
<path d="m370.81 345.69c0 8.215 6.66 14.876 14.876 14.876 8.215 0 14.876-6.661 14.876-14.876 0-8.216-6.661-14.876-14.876-14.876-8.216 0-14.876 6.66-14.876 14.876zm26.776 0c0 6.572-5.328 11.9-11.9 11.9-6.573 0-11.901-5.328-11.901-11.9 0-6.573 5.328-11.901 11.901-11.901 6.572 0 11.9 5.328 11.9 11.901z" clip-rule="evenodd" fill="#ebf8f1" fill-rule="evenodd"/>
</g>
<path d="m1282.5 473.5c0 11.046-8.95 20-20 20s-20-8.954-20-20 8.95-20 20-20 20 8.954 20 20z" stroke="#ebf8f1" stroke-width="5"/>
<mask id="mask18" x="1263" y="447" width="17" height="15" mask-type="alpha" maskUnits="userSpaceOnUse">
<path d="m1267.2 447.69-3.72 7.81h5.58s2.6-6.322 2.97-5.95c0.38 0.372 2.23 1.487 2.23 2.045s-4.09 5.393-4.09 5.393l3.72 4.463 5.21-1.86-3.35-10.413z" clip-rule="evenodd" fill="#fff" fill-rule="evenodd"/>
</mask>
<g transform="translate(0,10)" mask="url(#mask18)">
<path d="m1247.8 463.69c0 8.215 6.66 14.876 14.88 14.876 8.21 0 14.87-6.661 14.87-14.876 0-8.216-6.66-14.876-14.87-14.876-8.22 0-14.88 6.66-14.88 14.876zm26.78 0c0 6.572-5.33 11.9-11.9 11.9-6.58 0-11.9-5.328-11.9-11.9 0-6.573 5.32-11.901 11.9-11.901 6.57 0 11.9 5.328 11.9 11.901z" clip-rule="evenodd" fill="#ebf8f1" fill-rule="evenodd"/>
</g>
<path d="m1082.5 507.5c0 11.046-8.95 20-20 20s-20-8.954-20-20 8.95-20 20-20 20 8.954 20 20z" stroke="#ebf8f1" stroke-width="5"/>
<mask id="mask19" x="1063" y="481" width="17" height="15" mask-type="alpha" maskUnits="userSpaceOnUse">
<path d="m1067.2 481.69-3.72 7.81h5.58s2.6-6.322 2.97-5.95c0.38 0.372 2.23 1.487 2.23 2.045s-4.09 5.393-4.09 5.393l3.72 4.463 5.21-1.86-3.35-10.413z" clip-rule="evenodd" fill="#fff" fill-rule="evenodd"/>
</mask>
<g transform="translate(0,10)" mask="url(#mask19)">
<path d="m1047.8 497.69c0 8.215 6.66 14.876 14.88 14.876 8.21 0 14.87-6.661 14.87-14.876 0-8.216-6.66-14.876-14.87-14.876-8.22 0-14.88 6.66-14.88 14.876zm26.78 0c0 6.572-5.33 11.9-11.9 11.9-6.58 0-11.9-5.328-11.9-11.9 0-6.573 5.32-11.901 11.9-11.901 6.57 0 11.9 5.328 11.9 11.901z" clip-rule="evenodd" fill="#ebf8f1" fill-rule="evenodd"/>
</g>
<path d="m1089.5 467c0 10.217-8.28 18.5-18.5 18.5s-18.5-8.283-18.5-18.5 8.28-18.5 18.5-18.5 18.5 8.283 18.5 18.5z" stroke="#ebf8f1" stroke-width="5"/>
<mask id="mask20" x="1071" y="442" width="16" height="14" mask-type="alpha" maskUnits="userSpaceOnUse">
<path d="m1075.3 442.25-3.47 7.289h5.2s2.43-5.901 2.78-5.553c0.35 0.347 2.08 1.388 2.08 1.909 0 0.52-3.81 5.033-3.81 5.033l3.47 4.165 4.86-1.736-3.13-9.719z" clip-rule="evenodd" fill="#fff" fill-rule="evenodd"/>
</mask>
<g transform="translate(0,10)" mask="url(#mask20)">
<path d="m1057.3 457.17c0 7.668 6.22 13.885 13.88 13.885 7.67 0 13.89-6.217 13.89-13.885s-6.22-13.884-13.89-13.884c-7.66 0-13.88 6.216-13.88 13.884zm24.99 0c0 6.135-4.97 11.108-11.11 11.108-6.13 0-11.1-4.973-11.1-11.108 0-6.134 4.97-11.107 11.1-11.107 6.14 0 11.11 4.973 11.11 11.107z" clip-rule="evenodd" fill="#ebf8f1" fill-rule="evenodd"/>
</g>
<path d="m1470.5 341.5c0 24.853-20.15 45-45 45s-45-20.147-45-45 20.15-45 45-45 45 20.147 45 45z" stroke="#ebf8f1" stroke-width="5"/>
<mask id="mask21" x="1427" y="298" width="34" height="30" mask-type="alpha" maskUnits="userSpaceOnUse">
<path d="m1435.3 298.13-7.85 16.488h11.78s5.5-13.347 6.28-12.562c0.79 0.785 4.71 3.14 4.71 4.318s-8.63 11.384-8.63 11.384l7.85 9.422 10.99-3.926-7.07-21.983z" clip-rule="evenodd" fill="#fff" fill-rule="evenodd"/>
</mask>
<g transform="translate(0,10)" mask="url(#mask21)">
<path d="m1394.5 331.89c0 17.344 14.06 31.405 31.4 31.405 17.35 0 31.41-14.061 31.41-31.405 0-17.345-14.06-31.405-31.41-31.405-17.34 0-31.4 14.06-31.4 31.405zm56.53 0c0 13.875-11.25 25.124-25.13 25.124-13.87 0-25.12-11.249-25.12-25.124 0-13.876 11.25-25.124 25.12-25.124 13.88 0 25.13 11.248 25.13 25.124z" clip-rule="evenodd" fill="#ebf8f1" fill-rule="evenodd"/>
</g>
<path d="m1473.5 423.5c0 19.882-16.12 36-36 36s-36-16.118-36-36 16.12-36 36-36 36 16.118 36 36z" stroke="#ebf8f1" stroke-width="5"/>
<mask id="mask22" x="1439" y="386" width="27" height="24" mask-type="alpha" maskUnits="userSpaceOnUse">
<path d="m1445.5 386.45-6.37 13.364h9.55s4.45-10.818 5.09-10.182c0.63 0.636 3.82 2.545 3.82 3.5 0 0.954-7 9.227-7 9.227l6.36 7.637 8.91-3.182-5.73-17.818z" clip-rule="evenodd" fill="#fff" fill-rule="evenodd"/>
</mask>
<g transform="translate(0,10)" mask="url(#mask22)">
<path d="m1412.4 413.82c0 14.058 11.4 25.454 25.46 25.454s25.45-11.396 25.45-25.454-11.39-25.455-25.45-25.455-25.46 11.397-25.46 25.455zm45.82 0c0 11.246-9.12 20.363-20.36 20.363-11.25 0-20.37-9.117-20.37-20.363 0-11.247 9.12-20.364 20.37-20.364 11.24 0 20.36 9.117 20.36 20.364z" clip-rule="evenodd" fill="#ebf8f1" fill-rule="evenodd"/>
</g>
<path d="m1352.5 305.5c0 4.971-4.03 9-9 9s-9-4.029-9-9 4.03-9 9-9 9 4.029 9 9z" stroke="#ebf8f1" stroke-width="5"/>
<mask id="mask23" x="1343" y="287" width="9" height="8" mask-type="alpha" maskUnits="userSpaceOnUse">
<path d="m1345.9 287.42-1.91 3.992h2.86s1.33-3.231 1.52-3.041 1.14 0.76 1.14 1.045-2.09 2.756-2.09 2.756l1.9 2.281 2.66-0.95-1.71-5.322z" clip-rule="evenodd" fill="#fff" fill-rule="evenodd"/>
</mask>
<g transform="translate(0,10)" mask="url(#mask23)">
<path d="m1336 295.6c0 4.199 3.41 7.603 7.61 7.603 4.19 0 7.6-3.404 7.6-7.603s-3.41-7.603-7.6-7.603c-4.2 0-7.61 3.404-7.61 7.603zm13.69 0c0 3.359-2.73 6.083-6.08 6.083-3.36 0-6.09-2.724-6.09-6.083s2.73-6.083 6.09-6.083c3.35 0 6.08 2.724 6.08 6.083z" clip-rule="evenodd" fill="#ebf8f1" fill-rule="evenodd"/>
</g>
<path d="m1323.5 319.5c0 4.418-3.58 8-8 8s-8-3.582-8-8 3.58-8 8-8 8 3.582 8 8z" stroke="#ebf8f1" stroke-width="5"/>
<mask id="mask24" x="1315" y="302" width="9" height="7" mask-type="alpha" maskUnits="userSpaceOnUse">
<path d="m1317.7 302.12-1.74 3.645h2.61s1.21-2.951 1.39-2.777c0.17 0.173 1.04 0.694 1.04 0.954 0 0.261-1.91 2.517-1.91 2.517l1.73 2.083 2.43-0.868-1.56-4.86z" clip-rule="evenodd" fill="#fff" fill-rule="evenodd"/>
</mask>
<g transform="translate(0,10)" mask="url(#mask24)">
<path d="m1308.6 309.59c0 3.834 3.11 6.942 6.95 6.942 3.83 0 6.94-3.108 6.94-6.942s-3.11-6.942-6.94-6.942c-3.84 0-6.95 3.108-6.95 6.942zm12.5 0c0 3.067-2.49 5.553-5.55 5.553-3.07 0-5.56-2.486-5.56-5.553 0-3.068 2.49-5.554 5.56-5.554 3.06 0 5.55 2.486 5.55 5.554z" clip-rule="evenodd" fill="#ebf8f1" fill-rule="evenodd"/>
</g>
<path d="m946.5 466.5c0 4.418-3.582 8-8 8s-8-3.582-8-8 3.582-8 8-8 8 3.582 8 8z" stroke="#ebf8f1" stroke-width="5"/>
<mask id="mask25" x="938" y="449" width="9" height="7" mask-type="alpha" maskUnits="userSpaceOnUse">
<path d="m940.67 449.12-1.735 3.645h2.603s1.215-2.951 1.388-2.777c0.174 0.173 1.042 0.694 1.042 0.954 0 0.261-1.909 2.517-1.909 2.517l1.735 2.083 2.43-0.868-1.562-4.86z" clip-rule="evenodd" fill="#fff" fill-rule="evenodd"/>
</mask>
<g transform="translate(0,10)" mask="url(#mask25)">
<path d="m931.64 456.59c0 3.834 3.108 6.942 6.942 6.942s6.942-3.108 6.942-6.942-3.108-6.942-6.942-6.942-6.942 3.108-6.942 6.942zm12.495 0c0 3.067-2.486 5.553-5.553 5.553-3.068 0-5.554-2.486-5.554-5.553 0-3.068 2.486-5.554 5.554-5.554 3.067 0 5.553 2.486 5.553 5.554z" clip-rule="evenodd" fill="#ebf8f1" fill-rule="evenodd"/>
</g>
<path d="m932.5 480.5c0 4.418-3.582 8-8 8s-8-3.582-8-8 3.582-8 8-8 8 3.582 8 8z" stroke="#ebf8f1" stroke-width="5"/>
<mask id="mask26" x="924" y="463" width="9" height="7" mask-type="alpha" maskUnits="userSpaceOnUse">
<path d="m926.67 463.12-1.735 3.645h2.603s1.215-2.951 1.388-2.777c0.174 0.173 1.042 0.694 1.042 0.954 0 0.261-1.909 2.517-1.909 2.517l1.735 2.083 2.43-0.868-1.562-4.86z" clip-rule="evenodd" fill="#fff" fill-rule="evenodd"/>
</mask>
<g transform="translate(0,10)" mask="url(#mask26)">
<path d="m917.64 470.59c0 3.834 3.108 6.942 6.942 6.942s6.942-3.108 6.942-6.942-3.108-6.942-6.942-6.942-6.942 3.108-6.942 6.942zm12.495 0c0 3.067-2.486 5.553-5.553 5.553-3.068 0-5.554-2.486-5.554-5.553 0-3.068 2.486-5.554 5.554-5.554 3.067 0 5.553 2.486 5.553 5.554z" clip-rule="evenodd" fill="#ebf8f1" fill-rule="evenodd"/>
</g>
<path d="m420.5 362.5c0 4.418-3.582 8-8 8s-8-3.582-8-8 3.582-8 8-8 8 3.582 8 8z" stroke="#ebf8f1" stroke-width="5"/>
<mask id="mask27" x="412" y="345" width="9" height="7" mask-type="alpha" maskUnits="userSpaceOnUse">
<path d="m414.67 345.12-1.735 3.645h2.603s1.215-2.951 1.388-2.777c0.174 0.173 1.042 0.694 1.042 0.954 0 0.261-1.909 2.517-1.909 2.517l1.735 2.083 2.43-0.868-1.562-4.86z" clip-rule="evenodd" fill="#fff" fill-rule="evenodd"/>
</mask>
<g transform="translate(0,10)" mask="url(#mask27)">
<path d="m405.64 352.59c0 3.834 3.108 6.942 6.942 6.942s6.942-3.108 6.942-6.942-3.108-6.942-6.942-6.942-6.942 3.108-6.942 6.942zm12.495 0c0 3.067-2.486 5.553-5.553 5.553-3.068 0-5.554-2.486-5.554-5.553 0-3.068 2.486-5.554 5.554-5.554 3.067 0 5.553 2.486 5.553 5.554z" clip-rule="evenodd" fill="#ebf8f1" fill-rule="evenodd"/>
</g>
<path d="m1200.5 470.5c0 4.418-3.58 8-8 8s-8-3.582-8-8 3.58-8 8-8 8 3.582 8 8z" stroke="#ebf8f1" stroke-width="5"/>
<mask id="mask28" x="1192" y="453" width="9" height="7" mask-type="alpha" maskUnits="userSpaceOnUse">
<path d="m1194.7 453.12-1.74 3.645h2.61s1.21-2.951 1.39-2.777c0.17 0.173 1.04 0.694 1.04 0.954 0 0.261-1.91 2.517-1.91 2.517l1.73 2.083 2.43-0.868-1.56-4.86z" clip-rule="evenodd" fill="#fff" fill-rule="evenodd"/>
</mask>
<g transform="translate(0,10)" mask="url(#mask28)">
<path d="m1185.6 460.59c0 3.834 3.11 6.942 6.95 6.942 3.83 0 6.94-3.108 6.94-6.942s-3.11-6.942-6.94-6.942c-3.84 0-6.95 3.108-6.95 6.942zm12.5 0c0 3.067-2.49 5.553-5.55 5.553-3.07 0-5.56-2.486-5.56-5.553 0-3.068 2.49-5.554 5.56-5.554 3.06 0 5.55 2.486 5.55 5.554z" clip-rule="evenodd" fill="#ebf8f1" fill-rule="evenodd"/>
</g>
<path d="m1100.5 500.5c0 4.418-3.58 8-8 8s-8-3.582-8-8 3.58-8 8-8 8 3.582 8 8z" stroke="#ebf8f1" stroke-width="5"/>
<mask id="mask29" x="1092" y="483" width="9" height="7" mask-type="alpha" maskUnits="userSpaceOnUse">
<path d="m1094.7 483.12-1.74 3.645h2.61s1.21-2.951 1.39-2.777c0.17 0.173 1.04 0.694 1.04 0.954 0 0.261-1.91 2.517-1.91 2.517l1.73 2.083 2.43-0.868-1.56-4.86z" clip-rule="evenodd" fill="#fff" fill-rule="evenodd"/>
</mask>
<g transform="translate(0,10)" mask="url(#mask29)">
<path d="m1085.6 490.59c0 3.834 3.11 6.942 6.95 6.942 3.83 0 6.94-3.108 6.94-6.942s-3.11-6.942-6.94-6.942c-3.84 0-6.95 3.108-6.95 6.942zm12.5 0c0 3.067-2.49 5.553-5.55 5.553-3.07 0-5.56-2.486-5.56-5.553 0-3.068 2.49-5.554 5.56-5.554 3.06 0 5.55 2.486 5.55 5.554z" clip-rule="evenodd" fill="#ebf8f1" fill-rule="evenodd"/>
</g>
<path d="m1222.5 460c0 3.038-2.46 5.5-5.5 5.5s-5.5-2.462-5.5-5.5 2.46-5.5 5.5-5.5 5.5 2.462 5.5 5.5z" stroke="#ebf8f1" stroke-width="5"/>
<mask id="mask30" x="1217" y="444" width="6" height="6" mask-type="alpha" maskUnits="userSpaceOnUse">
<path d="m1218.6 444.38-1.32 2.777h1.98s0.93-2.248 1.06-2.116 0.79 0.529 0.79 0.727c0 0.199-1.45 1.918-1.45 1.918l1.32 1.586 1.85-0.661-1.19-3.702z" clip-rule="evenodd" fill="#fff" fill-rule="evenodd"/>
</mask>
<g transform="translate(0,10)" mask="url(#mask30)">
<path d="m1211.8 450.07c0 2.921 2.37 5.289 5.29 5.289s5.29-2.368 5.29-5.289c0-2.922-2.37-5.29-5.29-5.29s-5.29 2.368-5.29 5.29zm9.52 0c0 2.337-1.9 4.231-4.23 4.231-2.34 0-4.23-1.894-4.23-4.231s1.89-4.232 4.23-4.232c2.33 0 4.23 1.895 4.23 4.232z" clip-rule="evenodd" fill="#ebf8f1" fill-rule="evenodd"/>
</g>
</svg>
