<svg width="16" height="16" viewBox="0 0 16 16" fill="none" xmlns="http://www.w3.org/2000/svg">
<rect width="16" height="16" rx="8" fill="#C4C7CE"/>
<path d="M7.08631 10.8857C7.09618 10.2988 7.16276 9.83524 7.28607 9.49496C7.40937 9.15467 7.66091 8.7774 8.04069 8.36315L9.00986 7.36449C9.42417 6.89599 9.63132 6.39296 9.63132 5.85541C9.63132 5.33759 9.49568 4.9332 9.22441 4.64223C8.95314 4.34633 8.55857 4.19839 8.04069 4.19839C7.53761 4.19839 7.13317 4.33154 6.82737 4.59785C6.52158 4.86416 6.36868 5.2217 6.36868 5.67048H5C5.00986 4.87155 5.29346 4.22798 5.8508 3.73974C6.41307 3.24658 7.14303 3 8.04069 3C8.97287 3 9.6979 3.25151 10.2158 3.75454C10.7386 4.25263 11 4.93813 11 5.81103C11 6.67406 10.6005 7.52477 9.80148 8.36315L8.99507 9.16207C8.63502 9.56153 8.45499 10.1361 8.45499 10.8857H7.08631ZM7.02713 13.2307C7.02713 13.0087 7.09371 12.8238 7.22688 12.6759C7.36498 12.523 7.5672 12.4465 7.83354 12.4465C8.09988 12.4465 8.3021 12.523 8.4402 12.6759C8.5783 12.8238 8.64735 13.0087 8.64735 13.2307C8.64735 13.4526 8.5783 13.6375 8.4402 13.7855C8.3021 13.9285 8.09988 14 7.83354 14C7.5672 14 7.36498 13.9285 7.22688 13.7855C7.09371 13.6375 7.02713 13.4526 7.02713 13.2307Z" fill="white"/>
</svg>
