<svg width="30" height="30" viewBox="0 0 30 30" fill="none" xmlns="http://www.w3.org/2000/svg">
<path d="M0.0722656 14.6285V15.4341C0.279948 23.1372 6.48524 29.3236 13.8674 29.9026H16.1393C23.5655 29.3173 29.6638 23.0743 29.8652 15.4215V14.6285C29.6638 6.83731 23.3516 0.518733 15.7491 0.128542C7.56771 -0.286822 0.298828 6.2772 0.0722656 14.6285Z" fill="url(#paint0_radial_652_4021)"/>
<path d="M15.0375 8.36432C17.1635 8.36432 17.4172 8.36996 18.2574 8.40944C19.0356 8.44327 19.4529 8.57861 19.7349 8.68575C20.1071 8.83237 20.3721 9.00718 20.6484 9.28913C20.9247 9.57108 21.0995 9.84176 21.2461 10.2196C21.3533 10.5072 21.483 10.9357 21.5225 11.7252C21.5619 12.5823 21.5676 12.8361 21.5676 15.0015C21.5676 17.1669 21.5619 17.4207 21.5225 18.2778C21.4886 19.0673 21.3589 19.4958 21.2461 19.7834C21.0995 20.1612 20.9304 20.4319 20.6484 20.7139C20.3721 20.9958 20.1071 21.1706 19.7349 21.3172C19.4529 21.43 19.03 21.5597 18.2574 21.5936C17.4172 21.633 17.1635 21.6387 15.0375 21.6387C12.9116 21.6387 12.6579 21.633 11.8176 21.5936C11.0395 21.5597 10.6222 21.4244 10.3402 21.3172C9.96803 21.1706 9.703 20.9958 9.42668 20.7139C9.15037 20.4319 8.97556 20.1612 8.82894 19.7834C8.7218 19.4958 8.5921 19.0673 8.55263 18.2778C8.51316 17.4207 8.50752 17.1669 8.50752 15.0015C8.50752 12.8361 8.51316 12.5823 8.55263 11.7252C8.58646 10.9357 8.71616 10.5072 8.82894 10.2196C8.97556 9.84176 9.14473 9.57108 9.42668 9.28913C9.703 9.00718 9.96803 8.83237 10.3402 8.68575C10.6222 8.57297 11.0451 8.44327 11.8176 8.40944C12.6579 8.3756 12.9116 8.36432 15.0375 8.36432ZM15.0375 6.90381C12.8721 6.90381 12.6015 6.91509 11.7556 6.95456C10.9098 6.99403 10.3289 7.12937 9.82142 7.33238C9.29698 7.54102 8.8515 7.81734 8.41165 8.26846C7.96617 8.71959 7.69549 9.17071 7.49249 9.70642C7.29512 10.2196 7.15978 10.8117 7.12031 11.6745C7.08083 12.5372 7.0752 12.8135 7.0752 15.0128C7.0752 17.212 7.08647 17.4883 7.12031 18.3511C7.15978 19.2139 7.29512 19.8003 7.49249 20.3191C7.69549 20.8492 7.96617 21.306 8.41165 21.7571C8.85714 22.2082 9.29698 22.4845 9.82142 22.6932C10.3289 22.8962 10.9098 23.0315 11.7556 23.071C12.6071 23.1105 12.8778 23.1217 15.0375 23.1217C17.1973 23.1217 17.4736 23.1105 18.3195 23.071C19.1653 23.0315 19.7462 22.8962 20.2537 22.6932C20.7781 22.4845 21.2236 22.2082 21.6634 21.7571C22.1089 21.306 22.3796 20.8548 22.5826 20.3191C22.78 19.806 22.9153 19.2139 22.9548 18.3511C22.9943 17.4883 22.9999 17.212 22.9999 15.0128C22.9999 12.8135 22.9886 12.5372 22.9548 11.6745C22.9153 10.8117 22.78 10.2252 22.5826 9.70642C22.3796 9.17635 22.1089 8.71959 21.6634 8.26846C21.218 7.81734 20.7781 7.54102 20.2537 7.33238C19.7462 7.12937 19.1653 6.99403 18.3195 6.95456C17.4736 6.91509 17.1973 6.90381 15.0375 6.90381Z" fill="white"/>
<path d="M15.0375 10.8452C12.7763 10.8452 10.9492 12.7061 10.9492 15.0068C10.9492 17.3076 12.7819 19.1685 15.0375 19.1685C17.2932 19.1685 19.1259 17.3076 19.1259 15.0068C19.1259 12.7061 17.2932 10.8452 15.0375 10.8452ZM15.0375 17.7079C13.5714 17.7079 12.3815 16.5012 12.3815 15.0068C12.3815 13.5125 13.5714 12.3057 15.0375 12.3057C16.5037 12.3057 17.6935 13.5125 17.6935 15.0068C17.6935 16.5012 16.5037 17.7079 15.0375 17.7079Z" fill="white"/>
<path d="M19.2899 11.6522C19.8162 11.6522 20.2429 11.218 20.2429 10.6823C20.2429 10.1466 19.8162 9.7124 19.2899 9.7124C18.7636 9.7124 18.3369 10.1466 18.3369 10.6823C18.3369 11.218 18.7636 11.6522 19.2899 11.6522Z" fill="white"/>
<defs>
<radialGradient id="paint0_radial_652_4021" cx="0" cy="0" r="1" gradientUnits="userSpaceOnUse" gradientTransform="translate(0.616409 27.1703) rotate(-86.9999) scale(43.0736 36.6121)">
<stop stop-color="#FED576"/>
<stop offset="0.2634" stop-color="#F47133"/>
<stop offset="0.6091" stop-color="#BC3081"/>
<stop offset="1" stop-color="#4C63D2"/>
</radialGradient>
</defs>
</svg>
