<svg width="30" height="30" viewBox="0 0 30 30" fill="none" xmlns="http://www.w3.org/2000/svg">
<path fill-rule="evenodd" clip-rule="evenodd" d="M0 15C0 6.71573 6.71573 0 15 0C23.2843 0 30 6.71573 30 15C30 23.2843 23.2843 30 15 30C6.71573 30 0 23.2843 0 15Z" fill="#F68634"/>
<path fill-rule="evenodd" clip-rule="evenodd" d="M16.6501 11.371C16.6501 10.4872 15.9054 9.76854 14.9898 9.76854C14.075 9.76854 13.3295 10.4872 13.3295 11.371C13.3295 12.2541 14.075 12.9732 14.9898 12.9732C15.9054 12.9732 16.6501 12.2541 16.6501 11.371ZM18.9998 11.371C18.9998 13.505 17.2017 15.2408 14.9898 15.2408C12.7784 15.2408 10.9799 13.505 10.9799 11.371C10.9799 9.23632 12.7784 7.5 14.9898 7.5C17.2017 7.5 18.9998 9.23632 18.9998 11.371ZM18.951 17.4694C18.2259 17.909 17.4387 18.2207 16.6225 18.4002L18.8641 20.5643C19.3234 21.0066 19.3234 21.7251 18.8641 22.1679C18.4054 22.6107 17.6619 22.6107 17.2036 22.1679L14.9996 20.0413L12.7975 22.1679C12.5679 22.3891 12.267 22.4998 11.9662 22.4998C11.6658 22.4998 11.3654 22.3891 11.1358 22.1679C10.677 21.7251 10.677 21.0071 11.1353 20.5643L13.3772 18.4002C12.5609 18.2207 11.7737 17.9085 11.0487 17.4694C10.4999 17.1354 10.3351 16.4357 10.6808 15.9056C11.0256 15.3748 11.7507 15.215 12.3004 15.5489C13.942 16.5458 16.0567 16.546 17.6993 15.5489C18.249 15.215 18.9738 15.3748 19.3193 15.9056C19.665 16.4353 19.4997 17.1354 18.951 17.4694Z" fill="white"/>
</svg>
