<svg width="30" height="30" viewBox="0 0 30 30" fill="none" xmlns="http://www.w3.org/2000/svg">
<path fill-rule="evenodd" clip-rule="evenodd" d="M0 15C0 6.71573 6.71573 0 15 0C23.2843 0 30 6.71573 30 15C30 23.2843 23.2843 30 15 30C6.71573 30 0 23.2843 0 15Z" fill="#4C6C91"/>
<path fill-rule="evenodd" clip-rule="evenodd" d="M15.7847 19.4226C15.7847 19.4226 16.0734 19.3911 16.2213 19.2351C16.3567 19.0922 16.352 18.8226 16.352 18.8226C16.352 18.8226 16.334 17.5636 16.9296 17.3777C17.5165 17.1949 18.2701 18.5952 19.0699 19.1337C19.674 19.5408 20.1326 19.4517 20.1326 19.4517L22.2697 19.4226C22.2697 19.4226 23.3872 19.355 22.8574 18.4923C22.8136 18.4216 22.5483 17.854 21.2688 16.6879C19.9283 15.4673 20.1083 15.6647 21.722 13.553C22.7048 12.2672 23.0977 11.4821 22.9748 11.1464C22.8582 10.8253 22.1351 10.9106 22.1351 10.9106L19.7296 10.9252C19.7296 10.9252 19.5511 10.9014 19.4189 10.9789C19.2898 11.055 19.206 11.2324 19.206 11.2324C19.206 11.2324 18.8257 12.2272 18.3178 13.0737C17.2465 14.8589 16.8184 14.9534 16.6431 14.8428C16.2354 14.5839 16.3372 13.8042 16.3372 13.2504C16.3372 11.5197 16.6048 10.7984 15.8167 10.6118C15.5554 10.5495 15.3629 10.5088 14.6938 10.5019C13.8353 10.4935 13.1091 10.505 12.6975 10.7024C12.4236 10.8338 12.2123 11.1272 12.3414 11.1441C12.5003 11.1648 12.8602 11.2394 13.0512 11.4944C13.2977 11.8239 13.2891 12.5629 13.2891 12.5629C13.2891 12.5629 13.4307 14.6 12.9581 14.8528C12.6341 15.0264 12.1896 14.6723 11.2341 13.0522C10.745 12.2226 10.3756 11.3054 10.3756 11.3054C10.3756 11.3054 10.3044 11.1341 10.1768 11.0419C10.0227 10.9306 9.80747 10.896 9.80747 10.896L7.52161 10.9106C7.52161 10.9106 7.17806 10.9198 7.05207 11.0665C6.94016 11.1963 7.04346 11.466 7.04346 11.466C7.04346 11.466 8.83318 15.5764 10.86 17.6481C12.7186 19.547 14.8284 19.4226 14.8284 19.4226H15.7847Z" fill="white"/>
</svg>
